<?xml version="1.0" encoding="UTF-8"?>
<svg id="Layer_1" xmlns="http://www.w3.org/2000/svg" version="1.1" viewBox="0 0 315 97">
  <!-- Generator: Adobe Illustrator 29.7.0, SVG Export Plug-In . SVG Version: 2.1.1 Build 138)  -->
  <defs>
    <style>
      .st0 {
        fill: #d33722;
      }

      .st1 {
        fill: #c12112;
      }
    </style>
  </defs>
  <path class="st1" d="M64.6,40.1c-.4-6.2-3.3-12.1-8-16.2-2.2-1.9-4.3-3.1-6.9-4.2.3-1.2,2.2-7.3,2.2-8h0c-12.8,4.1-27.8,4.1-40.7.3v31.9c2.4-.5,4.1-.8,6.6-.9.5,6.5,3.3,12.2,8.3,16.5,2,1.7,4.3,3,6.7,4l-3.1,8.4c10.7-3.8,23.2-5,34.4-2.6,2,.4,4.6,1,6.5,1.8v-32c-2,.5-3.8.7-5.9.9ZM56.4,31.2c-1.4-.2-2.8-.6-4.2-.9.3-3.2.2-4.6-.5-7.8,2.7,1.8,4.1,5.7,4.8,8.7ZM42.1,36.8h-.4c-1.6-.7-3.7-1.7-5.2-2.4,1-2.3,2.5-4.9,3.8-7,1.4.5,3.2,1.3,4.7,1.9-.4,1.1-2.4,6.9-2.9,7.5ZM46.1,29.6c1.6.5,3.2,1,4.8,1.5,0,.5,0,1-.2,1.5-.2,1.1-.8,5.3-1.6,6.2,0,0-.4,0-.5,0-1.9-.5-3.5-.9-5.3-1.5,1-2.5,1.9-5.1,2.8-7.6ZM35.4,33.6h-.3c-1.6-1-3.2-2.1-4.7-3.3,1.4-2.3,2.9-3.8,4.8-5.8.9.3,3.1,1.7,4.1,2.2-1,1.5-2.9,5.7-3.9,6.8ZM38.9,45.8c-.9,2.2-1.7,4.7-2.6,7-.1.4-.2.4-.4.7-.3,0-4.1-1.2-4.8-1.4.5-2.9.8-5,1.6-7.9,2,.4,4.1,1,6.1,1.6ZM40.1,46.2c2,.8,3.8,1.5,5.8,2.4-1.1,2.5-2.2,4.4-3.6,6.8l-.3.5c-.6.2-3.9-1.3-4.7-1.7l2.9-7.9ZM46.9,49.1c2,1,3.5,1.9,5.3,3.2-1.4,2.4-2.7,3.8-4.6,5.8l-.4.4c-.8,0-3.4-1.5-4.3-2,1.7-2.6,2.7-4.6,4-7.4ZM50.5,39.2c.7-2.8,1.1-5,1.6-7.8,1.6.4,2.9.7,4.5,1,.2,1.6.4,6,0,7.4-.5.3-.7.1-1.3,0-1.5-.1-3.2-.4-4.7-.7ZM51.1,30l-1.9-.6c-.8-.2-1.9-.6-2.7-.9,1-2.4,1.9-5,2.8-7.4,2.2,1.8,1.9,6.3,1.8,8.9ZM47.9,20.7h.1c-.3,1.6-2,5.7-2.6,7.4l-2.2-.9-2.2-.9c1.7-2.3,3.5-4.5,6.2-5.6h.7ZM45.2,20.3c-2.8,2.3-3,2.4-5.3,5.5l-1.2-.6-2.6-1.4c2.3-1.8,4.8-3.1,7.7-3.5.4,0,1-.1,1.4,0ZM39,19.5c1-.1,1.9,0,2.8,0-2.8.9-4.1,1.6-6.4,3.4h-.2c-.7,0-2-1.3-2.5-1.8,1.8-.8,4.3-1.3,6.3-1.5ZM31.7,21.4c.8,1.1,1.4,1.7,2.5,2.5-1,1-2,2.1-2.9,3.2-.4.5-1.5,2-1.9,2.4l-.5-.4c-1.1-1-2.4-2.3-3.3-3.5,2-1.9,3.7-2.9,6.1-4.2ZM25.6,43.2c2,.2,4,.5,6,.8-.7,2.3-1.1,4.5-1.5,6.9,0,.2,0,.4-.1.6-.6.3-3.5-.5-4.6-.7-.2-2.8-.3-4.9.1-7.7ZM18.8,43c1.9,0,3.8,0,5.6,0-.3,3-.3,4.5-.1,7.5-1.3,0-2.3,0-3.5.2-1.1-2.7-1.7-4.9-2-7.8ZM27,58.9c-1.7-1.4-4.9-4.8-5.6-6.9l.2-.2c1,0,2,0,3,.1.5,2.8,1.1,4.3,2.5,6.8v.2ZM30.5,60.8c-2.6-1.6-4.1-5.8-4.8-8.7,1.4.2,2.8.6,4.2.9-.1,3.4-.2,4.5.6,7.8h0ZM32.9,62.3c-2.2-2.7-1.8-5.7-1.7-9,1.5.5,3,1,4.5,1.5l-1.9,5.2-.9,2.3ZM36.8,55.2c1.6.6,2.8,1.1,4.4,1.8-1.4,1.7-2.3,2.9-3.9,4.3-1.1.8-1.9,1.1-3.2,1.5.8-2.4,1.9-5.2,2.7-7.6ZM42.2,57.6c1,.3,2.9,1.5,3.8,2-2,1.6-3.3,2.2-5.8,3.1-1.4.3-2.2.4-3.6.5,2.5-1.5,3.9-3.3,5.6-5.6ZM43.3,63.8l-3.1.2c2.8-1,4.5-1.9,6.8-3.7.3,0,1.6,1,1.9,1.3.3,1.6-4.4,2-5.6,2.2ZM51.5,61.3l-1.1.6c-.7-1.1-1.4-1.7-2.4-2.5,2.3-2.3,3.5-3.7,5.2-6.4,1.7,1.3,2.7,2.3,4.2,3.9-1.9,1.9-3.4,3.1-5.9,4.4ZM55.1,24.3c2.3,1.5,4.6,4.7,5.9,7.2-1.2.1-2,0-3.2,0-.5-2.8-1.3-4.5-2.6-7.1ZM60.1,40.2h-2.3c.3-2.8.3-4.9,0-7.6,1.4,0,1.9,0,3.3,0h.2c1,1.1,1.8,6.1,2,7.7-1.1,0-2.2,0-3.3,0Z"/>
  <path class="st1" d="M242.5,15.2c-3.8-2.7-8.7-3.4-13.3-3-8.3,1-14.6,6.6-15,15.2-.5,11.9,8.5,17.7,19.7,16.5,4.8-.8,8.7-2.7,11.6-6.7,4.8-6.5,3.8-17.2-3-22ZM232.6,41.1c-6.3.8-9.9-2.9-10.8-8.8-1-6.7.5-16.4,8.6-17.7,5.2-.5,9.2,3.4,10.2,8.3,1.4,6.8,0,16.5-8,18.3Z"/>
  <path class="st1" d="M187.9,27.1c-.2,0-.5,0-.7,0,5-1.2,8.4-3.9,7.3-9.4-.7-3.8-5.5-5-8.8-4.9-4,0-7.8.4-11.8,0-.1,1.9.3,5.5.2,7.7,0,7.7.2,15.5-.3,23.2,1.9-.2,4.1-.3,6-.2,5.8.4,13.7.6,15.4-6.6.8-5.5-1.8-8.9-7.4-9.7ZM181.1,15.2c4.6-.3,7.7,1.1,6.9,6.5-.2,1.2-.8,2.2-1.6,3-1.6,1.5-3.4,1.4-5.5,1.4,0-3.7,0-7.2.2-10.9ZM188.1,37c-.2,1-.6,1.6-1.2,2.4,0,0,0,0-.2.1-1.8,1.6-3.4,1.4-5.7,1.3,0-4.1,0-8.1,0-12.2,1.8,0,3.9-.2,5.4,1,2.2,1.6,2.3,5,1.8,7.4Z"/>
  <path class="st1" d="M160.9,12.7c1.6.2,2.3.2,3.8,0,1.1,10,2.2,20.9,3.9,30.8-2.2-.3-5.1-.3-7.4,0,0-4.3-.7-10.8-1.2-15.2l-.6-5.8c-1.2,2.2-2.5,5.1-3.6,7.4-2.2,4.5-4.3,8.9-6.4,13.4-.6,0-1.2,0-1.7,0-3.2-6.8-6.5-13.7-9.9-20.4-1,5.4-1.5,14.8-1.8,20.4-1.5-.3-2.7-.2-4.2,0,1.8-10.2,3.3-20.5,4.6-30.8,1.6.2,2.1.2,3.7,0,.8,2,2.1,4.5,3,6.5,2.3,5,4.8,9.9,7.3,14.8,1.2-1.9,2.6-4.9,3.6-6.9,2.4-4.7,4.7-9.5,6.8-14.4Z"/>
  <path class="st1" d="M171.8,73.7c-.8-9.7-11.3-7.2-17.7-7.6.3,6.3.3,12.6,0,18.9,5.8-.5,10.2,1.5,14.9-2.7,2.3-2.7,3-5,2.8-8.5ZM167.2,78.2c-.3,1.4-.8,2.2-1.7,3.3,0,0-.2.2-.2.2-2,1.8-4.4,1.7-6.9,1.6-.1-3,0-6.3,0-9.4,0-1.4,0-5,0-6.3,2.2-.1,4.7-.3,6.6,1.1,2.7,2.1,2.8,6.3,2.1,9.4Z"/>
  <path class="st1" d="M260.5,12.1c3.3-.3,6.2.1,8.9,2.1-.3.9-1.1,3.9-1.7,4.4-.8-.9-1.4-1.9-2.3-2.7-1.8-1.7-5.6-1.4-7.2.4-.7.8-1,1.8-.9,2.8.3,4.5,7.9,5.6,10.8,8.5,1.7,1.5,2.6,3.3,2.8,5.6.5,6.5-4.5,10.4-10.6,10.8-3.1.3-5.8-.3-8.4-1.8.5-1.9.9-3.8,1.4-5.7h.3c.9.6,1.4,2.8,2.7,3.6,3.6,2.4,10,1,9.1-4.3-.4-2.3-3.3-4-5.4-4.9-6.7-2.8-10.3-8-6.2-15,1.4-2.3,4.2-3.4,6.9-3.9Z"/>
  <path class="st1" d="M297.9,12.1c3.4-.3,6,0,8.9,2.1-.5,1.3-1,3.2-1.5,4.4h-.3c-.6-.3-1.1-1.8-1.9-2.5-1.1-1-2.5-1.2-4-1.2-2.2,0-4.8,1.9-4.5,4.3.6,4.8,7.9,5.5,10.9,8.5,1.8,1.8,2.6,3.1,2.7,5.7.4,6.4-4.5,10.3-10.6,10.7-3.2.3-5.8-.2-8.5-1.8.5-1.6,1-3.9,1.4-5.6h.5c.4.2.3.2.5.7,1.1,3.2,4.2,4.4,7.4,3.9,2.6-.4,4.3-2.8,3.8-5.3-.8-3.8-6.4-4.8-9.1-6.9-1.9-1.3-3.7-3.1-4-5.5-.8-6.2,2.4-10.3,8.4-11.4Z"/>
  <path class="st1" d="M90.8,12.1c3.3-.3,6.1.1,8.9,2-.2.7-1.3,4.2-1.7,4.4-.7-.5-1.6-2.2-2.2-2.7-1.1-.9-2.5-1.1-3.8-1.1-2.3,0-4.8,1.9-4.4,4.4.7,4.7,7.9,5.4,10.8,8.4,1.7,1.8,2.6,3.1,2.7,5.6.4,6.5-4.5,10.4-10.6,10.8-3,.3-5.8-.2-8.4-1.8.5-1.8.9-3.9,1.4-5.6,0,0,.5,0,.5,0,0,0,1.5,2.9,2.7,3.8,1.3.9,3.4,1.1,4.9.8,1.3-.2,2.5-.8,3.2-1.8.7-.9.9-2.2.7-3.3-.7-3.8-6.4-5.2-9.3-7.2-1.9-1.3-3.4-3.1-3.8-5.5-.4-2.5.1-5.3,1.6-7.4,1.6-2.3,4.1-3.4,6.8-3.8Z"/>
  <path class="st1" d="M103.9,12.6c3.2.3,4.8.3,7.9,0,2.1,4.6,4.4,9.1,6.8,13.5,2.7-3.9,4.9-9.1,6.8-13.5,1.7.3,2.5.2,4.2,0-2.2,3.9-4.4,7.8-6.6,11.8-.5.9-2.5,4.6-2.6,5.3-.5,3.8-.2,10.1.2,13.8-2.6-.3-5-.3-7.6,0,.2-3.9.8-8.2.4-12.1-.2-1.6-2-4.7-2.9-6.2l-4.2-7.8c-.8-1.5-1.8-3.3-2.5-4.8Z"/>
  <path class="st1" d="M205.3,74.8c3-.9,5.1-2.7,4.2-6-1.1-4-9.4-2.6-12.6-2.8.3,6.3.3,12.6,0,18.9,4.4-.3,11.7,1.5,13.1-4.2.4-3.7-1.2-5.1-4.7-5.9ZM201.3,67.6c1.3,0,2.3-.2,3.3.7,1.7,1.4,1.2,3.7,0,5.2-1.1.8-2,.8-3.3.8,0-2.2,0-4.5,0-6.7ZM204.9,82.5c-1.2,1-2.1.9-3.6.9,0-2.5,0-5,0-7.5,1.1,0,2.1-.1,3.1.5,2.1,1.4,1.8,4.2.5,6.1Z"/>
  <path class="st1" d="M276.4,12.6c2.7.3,4.6.2,7.3,0-.4,4.5-.3,9.4-.4,13.9,0,5.7,0,11.3.4,16.9-2.5-.3-4.9-.3-7.4,0,.3-3.1.3-7.2.4-10.4,0-4.3,0-8.7,0-13,0-1.7-.4-6-.2-7.5Z"/>
  <path class="st1" d="M201.5,12.6c2.7.3,4.6.2,7.3,0-.5,10.3-.5,20.6,0,30.8-.3,0-2,0-2.3,0-1.8,0-3.2,0-5,.2.5-10.3.5-20.6,0-30.9Z"/>
  <path class="st1" d="M221.3,65.9c-.7,0-1.4,0-2.1,0-2.5,6.4-5.1,12.7-7.8,19,1.2-.1,1.5-.1,2.6,0,.5-1.7,1.2-4,1.9-5.6,1.8,0,3.7,0,5.5,0,.4,0,.7,0,.9.2.8,1.4,1.5,3.9,1.9,5.4,1.9-.1,2.9-.1,4.8,0-2.7-5.7-5.5-13.1-7.6-19ZM216.6,77.7c.8-2.2,1.6-4.3,2.5-6.3.5.4,2.2,5.3,2.5,6.3h-5.1Z"/>
  <path class="st1" d="M175.7,66.1c1.6,0,2.9,0,4.5,0-.3,3.4-.4,6.8-.4,10.2.1,3.7.8,7.3,5.4,7.1,4.6-.1,4.8-5.1,4.8-8.6,0-2.9,0-5.8-.2-8.7.9,0,1.8-.2,2.5.1.3.4.2.4.1.9-.3,4.5.2,10-1.1,14.2-1.6,4.9-10.2,5-13.6,1.9-.8-.7-1.4-1.6-1.7-2.6-.6-2.2-.4-5.9-.3-8.3,0-2.1,0-4.1-.1-6.2Z"/>
  <path class="st1" d="M170.1,49c-7.9,1.6-7.2,12.3,1.9,11.7,7.8-1.6,7.3-12.3-1.9-11.7ZM171.6,59.7c-4.6,0-4.9-4.6-3.4-7.9.4-1,1.4-1.6,2.5-1.9,5.1,0,5.4,8.2.9,9.8Z"/>
  <path class="st1" d="M70.8,76.2c-1.1-.2-8.4,0-10,0h-23.6v.5c.8.5,2.2.2,3.3.2,0,1,.3,2.5-.9,2.9-.6,0-.8-.2-1.3-.5v-.2c.5-.5,1.2-.3,1.5-.8-.3-.8-1.1-.6-1.8-.4-.3.3-.4.4-.5.8.3,1.2,1.6,1.7,2.7,1.6.6.7,0,.8,1.2,1.6,0-1.2-.2-2.3.5-3.3.7-.3,1.2,0,1.5.8-.5.9-1,.4-1.1,1.1.3.4.2.3.7.4.6-.2.4,0,.8-.5.2-.8.3-1.2,0-1.9-.9-.8-1.9-.3-2.3-1.1.1-.5,0-.4.4-.6.8,0,4.8,0,5.3.1.2.4.2.4.1.9-.7.6-2.2-.1-2.8,1.2,0,2.1,2.8,3.6,4.1,2.3.1-.5.1-.3,0-.8-.7-.2-2.3,1.2-3.3-.2,0-1.3,2.3-1.3,3.2-1.3v-2.1h2.4c0,.4,0,1.6-.2,1.9h-.8c-.4.8,1,1.8,1.7,1.8.7-.7,0-.8,1-.9,1,0,2.1,1.1,3.1,1.3.6.2.9.7,1.3,1v-5.1h2.1s2.1,0,2.1,0c0,1,.2,2.1-.5,2.8-.6.2-1.5,0-1.7-.7.8-.4,1.1-.1,1.7-.6-.2-.4-.1-.3-.5-.5-.6,0-.7,0-1.3.1-.4.5-.3.2-.5.9.1.6.4.9,1,1.3.6.4,1.1.4,1.8.4,0,0,.4.8.5,1,.2.2.5.5.7.7,0-1.2-.2-2.3.5-3.3.5-.3.3-.2.8,0,.4.3.5.4.6.9-.4.8-1,.3-1,1,.4.4.2.4.7.4.9-.5,1.1-1.2.7-2.1-.5-1-2.4-.9-2.3-1.9.5-.3,3.4-.2,4.1-.2,0,.4,0,1,0,1.4-.3.7-1,.8-.7,1.6.5.4.7.5,1.3.7h.3c.2-.5.3-.8.7-1,.5,0,.6,0,1,.2.2,1.5-.3,1.2,1.1,2.3v-4.9c.7-.6.9,0,1.2-.7l-.2-.3ZM55.5,79.7c-.5-.2-.5-.3-.8-.8v-.3s.5,0,.5,0v-.2c.1,0,0-.3,0-.3-1.1-.9-2,.2-3,.7h-.3c-.3-.6-.2-1.3-.2-1.9h4.1c0,.7.2,2.3-.3,2.8ZM68.3,78.9c-1.6-.2-1.7-1.7-.7-2.1.4,0,.6,0,.9.2.4.7.5,1.4-.2,1.9Z"/>
  <path class="st1" d="M231.7,66.1c1.6,0,2.9,0,4.5,0-.4,5.4-.3,13.5,0,18.9-1.8-.1-2.7-.1-4.5,0,.4-5.3.3-13.6,0-18.9Z"/>
  <path class="st1" d="M271.7,55c2.9-1,3.9-3.9.7-5.5-.8-.4-2.2-.3-3.2-.2-.9,0-1.8,0-2.7,0,.1,3.8.1,7.6,0,11.4,1.1,0,1.5,0,2.7,0,0-1.8-.1-3.7-.1-5.5.7,1.3,1.5,2.6,2.2,3.9l.9,1.7c1.2-.1,1.7,0,3,0-1.2-1.8-2.4-3.7-3.5-5.6ZM271.2,54.1c-.6.4-1,.7-1.8.5-.6-.7-.3-3.3-.2-4.4.5,0,1.3,0,1.7.3,1.4.8,1,2.5.3,3.7Z"/>
  <path class="st1" d="M123.1,55c.9-.4,2-.8,2.3-1.8.5-1.4.2-3.2-1.4-3.7-1.9-.6-4-.1-6-.3-.3,3.2.3,7.6,0,11.4,1.1,0,1.6-.1,2.7,0-.1-1.9-.1-3.6-.1-5.5,1.1,1.8,2.1,3.6,3.1,5.5,1.2-.1,1.8,0,3,0-1.1-1.7-2.5-3.8-3.5-5.6ZM121.2,54.6c-1.3-.4-.8-3.4-.6-4.5,2.8.1,3.2,1.9,1.9,4-.5.3-.7.4-1.3.5Z"/>
  <path class="st1" d="M181,49.2c.2,0,6.5,7,7.3,7.8,0-1.3-.2-6.9.2-7.6.5-.3.3-.3.9-.2.4.5,0,9.8,0,11.1-.4.3-.9.2-1.3.2-2.3-2.7-4.7-5.4-7.2-8,0,2.2,0,4.3,0,6.4,0,.6,0,1-.4,1.5-.4,0-.6.1-1,0,0,.1.1-10.3.2-11,.3-.2,1-.2,1.3-.2Z"/>
  <path class="st1" d="M228.9,49.2c.3,0,.6,0,.9,0,.1,0,.6,0,.7.1,2.5,2.4,4.7,5.2,7.2,7.7,0-2.4,0-4.8-.1-7.2,0-.3.3-.4.5-.5.4,0,.5,0,.9.2.2,1.1,0,3.7,0,4.9,0,2.1,0,4.1,0,6.2h-.3c-.5,0-.9,0-1.2-.3-2.3-2.5-4.7-5.2-7-7.7,0,2.5,0,5.4,0,7.8-.3.2-1,.2-1.4,0,0-.6,0-1.1,0-1.7.2-3.2.3-6.2.1-9.5Z"/>
  <path class="st1" d="M89.1,49.2c.2,0,6.5,7,7.3,7.8,0-2.4,0-4.8,0-7.2,0-.3.4-.5.5-.6.5,0,.4-.1.8.1,0,.4,0,.9,0,1.3-.1,3.2-.1,6.4-.2,9.6-.3.2-.9.2-1.3.2-2.3-2.7-4.7-5.4-7.2-8-.1,2.4,0,4.9,0,7.4,0,.3-.3.4-.4.6-.4,0-.6,0-.9-.1,0-.7,0-3.2.1-4.1,0-2.3,0-4.5,0-6.8.4-.2.9-.2,1.4-.2Z"/>
  <path class="st1" d="M129.6,49.2c.3.1,6.5,7,7.3,7.8,0-2.2,0-4.4,0-6.7,0-.7.3-1.3,1-1.3,0,0,.3.4.3.4,0,3.6-.1,7.3-.2,10.9-.3.2-1,.2-1.3.2-2.3-2.7-4.7-5.4-7.2-8,0,1.3.3,7.1-.2,7.8-.5.3-.3.2-.9.2-.3-.3-.3-.7-.3-1.2,0-2,.2-4,.3-5.9,0-1.4-.2-2.6,0-4,.3-.2.9-.2,1.3-.2Z"/>
  <path class="st1" d="M147.3,53.9c-.5-1.2-1.3-3.6-1.9-4.6-.5-.2-.8-.1-1.3-.1-1.5,3.8-3,7.6-4.7,11.4.5,0,1.1,0,1.6,0,.3-1,.8-2.4,1.2-3.4,1.1,0,2.3,0,3.5,0,.8.3,1.3,2.6,1.5,3.4,1.2-.1,1.7,0,2.9,0-1-2.2-1.9-4.4-2.8-6.7ZM144.7,56.2h-2c.5-1.3.9-2.5,1.5-3.8.4.5,1.2,2.9,1.5,3.6-.2.2-.6.2-1,.2Z"/>
  <path class="st1" d="M198.4,53.3c-.4-1-1.2-3.2-1.7-4.1-.5-.1-.7-.1-1.2-.1-.5,1.4-4.5,10.8-4.4,11.4,1.9.3,1.9-1.9,2.4-3.3,1.2,0,2.4,0,3.6,0,.6.4,1.2,2.5,1.4,3.4,1.2-.1,1.6,0,2.8,0-1.1-2.4-2-4.8-3-7.3ZM195.8,56.2c-.5,0-1.7.2-1.6-.5.2-.9.9-2.4,1.3-3.2.5.4,1.2,2.9,1.4,3.6-.2.2-.6.2-1.1.2Z"/>
  <path class="st1" d="M216.1,49.2c.8,0,1.7,0,2.6,0-.1,2.4-1.2,10,2.2,10.4,5.4.7,3.3-7.1,3.8-10.3.5-.2,1.1-.3,1.5,0v.5c-.5,4.6,1.5,11.9-6.5,10.7-3.8-.6-3.7-4.1-3.6-7.1,0-1.3-.2-3.2,0-4.4Z"/>
  <path class="st1" d="M109.4,49.2c1.1,0,5.8-.1,6.3.3,0,.6.1.6-.2,1-.8.3-2.6,0-3.5,0,0,1.1,0,2.5,0,3.6.8,0,2.9-.2,3.4,0,.4.5.3.3.4.9-.6.9-2.5-.2-3.7.3-.2.4-.1,1.2-.1,1.7v2.4c.9,0,3.1-.3,3.8,0,0,.5,0,.6,0,1.1-.3.2-5.3,0-6.3.1.3-2.8.2-8.6,0-11.4Z"/>
  <path class="st1" d="M258.1,49.2c2.1.1,4.2,0,6.1.1.3.3.2.5.2,1l-.2.2c-.8.2-2.6,0-3.5,0,0,1.2,0,2.4,0,3.6,1.2,0,2.2-.2,3.5,0,.3.3.2.5.2,1l-.2.2c-.9.2-2.5,0-3.5,0v1.6c0,.8,0,1.8,0,2.6,1.3,0,2.8-.5,3.6.2,0,.4.1.5,0,.9-.7.2-4.9,0-6.2.1.2-4,.1-7.4,0-11.4Z"/>
  <path class="st1" d="M248.9,49.2c.4.2,2.8,7.2,3.2,8.2,1.1-2.5,2.2-5.6,3.2-8.2h1.4c-.6,1.3-1.2,2.9-1.8,4.2-1,2.4-1.9,4.7-2.8,7.1-.4,0-1,0-1.5,0-1.4-3.8-2.9-7.6-4.5-11.3.9,0,1.8,0,2.7,0Z"/>
  <path class="st1" d="M279,49c1.1,0,2.6-.2,3.3.8.2.6-.1,1.1-.3,1.7-.2-.4-.6-.9-1-1.1-1.2-.6-3.4-.6-2.8,1.3,0,.3.4.9.7,1.1,2.6,1.6,5.5,2.4,3.6,6.2-.5,1-1.9,1.5-3,1.7-1.6,0-2,0-3.5-.6.2-.8.4-1.6.6-2.5.8,1.5,1.4,2.4,3.4,1.9.9-.2,1.5-1.6.9-2.3-1.2-1.5-4.1-2-4.6-4-.6-2.3.9-3.7,2.8-4.3Z"/>
  <path class="st1" d="M298.8,49.2c1.2,0,1.7,0,2.9,0,.8,1.7,1.7,3.4,2.5,5,.9-1.4,1.8-3.4,2.5-5,.4,0,1.1,0,1.5,0-.8,1.4-1.7,3-2.4,4.4-1.5,2.5-1.1,4-.9,6.9-1.2,0-1.6,0-2.8,0,.6-6.7-.6-5.4-3.3-11.4Z"/>
  <path class="st1" d="M99.4,49.2c2.5.1,5,0,7.5,0,.5,0,.7.2,1,.5,0,.5,0,.3-.3.8l-2.7-.2c0,2.5,0,4.9,0,7.4v2.8c-1,0-1.5,0-2.6,0,.2-3.3.2-6.8.1-10.1-.7,0-2.2.3-2.8,0-.4-.5-.2-.6-.3-1.3Z"/>
  <path class="st1" d="M289.6,49.2c2.1.1,4.2.1,6.3,0,.8,0,1.7-.2,2.2.6,0,.5,0,.3-.4.8l-2.6-.2v7.5s0,2.6,0,2.6c-1.1,0-1.6,0-2.7,0,.3-2.7.1-7.3.1-10.1-.9,0-2.1.4-2.8,0-.4-.5-.2-.6-.3-1.3Z"/>
  <path class="st1" d="M149.9,49.2c2.1.1,4.2.1,6.2,0,.8,0,1.7-.2,2.2.6,0,.5,0,.3-.3.8l-2.6-.2c0,2.4,0,4.8,0,7.2v3c-1,0-1.5,0-2.6,0,.1-3.4.2-6.8,0-10.2-.8,0-2.2.3-2.7,0-.4-.5-.2-.6-.3-1.3Z"/>
  <path class="st1" d="M202.9,49.2c.9,0,1.8,0,2.7,0-.3,2.9-.1,7.2-.1,10.2,1.3,0,2.4-.4,3.5,0,.3.5.2.6.2,1.2-2.1-.1-4.3-.1-6.4,0,.2-2.5.2-8.9,0-11.4Z"/>
  <path class="st1" d="M26.1,76.2h.5c.5-1.2-2-2-2.4-2.7,1.3-.5,2.6,1.7,3.1,2.7,1.1,0,5.5,0,6.4,0,0,.5,0,.3-.3.7h-.6c-.5.6-.3,4.4-.3,5.3-.4-.3-1-1.1-1.4-1.3-.9-.3-2.5-.8-2.6-1.9.2-1.2,1.6-1.9,2.5-.8-.3.6-1.2.2-1.6.9.2.6.9,1.2,1.6.9.7-.8.5-2.1.5-3.1h-4.1s0,5.2,0,5.2c-.3-.3-.8-.9-1.1-.9-1.8-.2-3.3-.5-2.9-2.7,0-.1-1.7-1.4-.5-2.5,1.2-1,2.3,0,2,1.3-.4.2-.3.2-.9.1v-.2c.2-.3.3-.4.5-.8-.4-.3-.2-.3-.7-.2-.3.3-.4.6-.4,1,0,1.7.9.7,1.7,1.6,0,.9-.6,0-1.2.8.5,1.8,3.1.4,2.6-1.7-.4-1.6-.2-.6-1-1.1v-.5s.4-.3.4-.3l.2.2Z"/>
  <path class="st0" d="M26.1,76.2h.5c.5-1.2-2-2-2.4-2.7,1.3-.5,2.6,1.7,3.1,2.7,1.1,0,5.5,0,6.4,0-.9.1-6.8.1-7.6,0Z"/>
  <path class="st1" d="M241.8,49.2c1,0,1.7,0,2.7,0-.3,4,0,7.4,0,11.4-1.1,0-1.6,0-2.7,0,.3-3.6,0-7.7,0-11.4Z"/>
  <path class="st1" d="M160.1,49.2c1,0,1.7,0,2.7,0-.2,3.6-.2,7.8,0,11.4-1.2-.1-1.6,0-2.7,0,.3-3.1.1-8.2,0-11.4Z"/>
  <path class="st1" d="M82.1,49.2c1,0,1.6,0,2.6,0-.1,2.5,0,5,0,7.5,0,.8,0,3.2,0,3.8-1,0-1.6,0-2.6,0,.2-2.9.1-5.7,0-8.6,0-.8-.1-2,0-2.8Z"/>
  <path class="st1" d="M285.2,49.2c.8,0,1.7,0,2.5,0-.1,3.7,0,7.4,0,11.1,0,0-.2.2-.2.2-.9,0-1.6,0-2.5,0,.2-2.8.1-5.5.1-8.3,0-.9-.2-2.2,0-3Z"/>
  <path class="st1" d="M13.6,76.9c-.8,0-2.8.2-3.2-.4v-.3c1.2-.3,10.3-.1,11.6,0l.2.3v.3c-.1,0-1,.2-1,.2-.3.4-.2,4.3-.2,5.1-1.4-1.1-.5-.8-1.2-2.1,0-.1-.9-.7-1.1-.9.4,0,.8,0,1.1-.3.3-.5.2-1.2.2-1.8-.6,0-1.2,0-1.7.1-.6.9,1.1,2-1.1,3h-.4c-.5-.4-1-.7-.9-1.4.4-.2.6,0,1.2.2.4-.6.3-1.4-.2-1.9h-2.4s0,5.2,0,5.2c-.3-.2-1.1-1.2-1.1-1.2-1.3-.5-3.4-.7-2.3-2.9.6-.4,1.4-.6,1.8,0-.3.6-.9.6-1.5,1.3v.3c.7.5,1.4.6,2,0,.3-.7.2-1.9.1-2.7Z"/>
  <path class="st1" d="M8.5,75.5c.2.1.4.3.7.5.5.9.2,4.6.2,5.8l-.7-.5c-.5-.9-.3-4.7-.2-5.8Z"/>
  <path class="st1" d="M72.1,75.5l.6.4c.5,1,.2,4.6.2,5.8l-.6-.3c-.5-.7-.3-4.7-.2-5.9Z"/>
  <path class="st1" d="M6.8,75.6c.1,0,.4.3.6.4.5.8.3,4.6.3,5.8-.2,0-.4-.3-.6-.4-.4-.8-.2-4.6-.2-5.8Z"/>
  <path class="st1" d="M73.8,75.6c.2,0,.4.3.6.4.5.8.3,4.7.2,5.8l-.6-.4c-.4-.8-.2-4.6-.2-5.8Z"/>
  <path class="st1" d="M40,82.2c4-.2,2.8,4.5-1.5,1.5v-.3c0,0,0-.2,0-.2.3.2.6.4.9.6.6.3,1,.5,1.7.3.4-.3.4-.4.6-.8l-.2-.2c-.5,0-.8,0-1.3,0-.4-.4-.3-.2-.4-.8Z"/>
  <path class="st1" d="M19.7,82.2c3.9-.1,2.7,4.6-1.6,1.5v-.4c.2-.2,3,2.1,3.3-.1-.6-.5-.9.1-1.6-.2-.2-.4-.2-.2-.1-.7Z"/>
  <path class="st1" d="M47.4,84.3c.5-.2.8-.3,1.2-.7v-.2c-.6-.2-1.6-.4-1.9-.7.9-.8,2.4-.1,2.6,1-.2,1.4-1.4,1.3-2.4,1,.1-.1.3-.2.5-.3Z"/>
  <path class="st0" d="M68.2,82.5c.7,0,1.1.1,1.7.4.6.3,1.1.8,1.4,1.5h-.2c-1.6-1.3-2-.4-2.9-1.9Z"/>
  <path class="st0" d="M16.8,80.1h.4c.6.4,1.4.9,1.7,1.6h0c-.9-.2-1.5-.9-2.1-1.6Z"/>
  <path class="st0" d="M25.5,76.2c-.5-1.4-1.7-.6-2.2-1.4v-.3c.1,0,.5,0,.5,0,1,.3,1.5.7,2.2,1.5l-.4.3Z"/>
  <path class="st0" d="M46.8,84.6c-.5-.2-1.5-.7-1.7-1.2.9.2,1,.6,2.2.9-.2,0-.4.2-.5.3Z"/>
</svg>