<?xml version="1.0" encoding="UTF-8"?>
<svg id="Layer_1" data-name="Layer 1" xmlns="http://www.w3.org/2000/svg" viewBox="0 0 268 204">
  <defs>
    <style>
      .cls-1 {
        fill: #610064;
      }
    </style>
  </defs>
  <polygon class="cls-1" points="63.64 91.42 96.66 54.32 27.11 67.05 63.64 91.42"/>
  <g>
    <path class="cls-1" d="M227.99,112.55c1.22,0,2.22-.36,3.28-.97v2.25c-1.08.62-2.46.96-3.64.96-3.07,0-4.97-1.74-4.97-4.78v-8.88h-2.49l5.4-6.04v3.77h4.91v2.27h-4.91v8.71c0,1.99,1.2,2.72,2.44,2.72"/>
    <path class="cls-1" d="M129.05,91.44v14.05c0,2.98-.75,5.36-2.46,7.08h0c-1.48,1.52-3.86,2.35-6.84,2.35s-5.43-.83-6.91-2.34c-1.69-1.7-2.42-4.08-2.42-7.08v-8.96c0-2.59-.14-4.34-1.8-4.97v-.13h5.07v14.05c0,2.32.45,4.07,1.6,5.22,1.08,1.09,2.61,1.67,4.52,1.67s3.42-.6,4.49-1.67c1.15-1.15,1.6-2.9,1.6-5.22v-14.05h3.14,0Z"/>
    <path class="cls-1" d="M133.48,102.34c0-1.55-.13-2.87-1.62-3.38v-.12h4.34l.08,2.42c1.53-2.39,3.71-2.83,5.33-2.83,1.21,0,5.14.42,5.14,5.91v10.02h-2.93v-10.06c0-2.27-1.22-3.64-3.27-3.64-1.59,0-3.12,1.02-4.1,2.75v10.94h-2.93v-12.04"/>
    <path class="cls-1" d="M154.11,98.84v15.53h-2.93v-12.04c0-1.55-.13-2.87-1.62-3.38v-.12s4.56,0,4.56,0Z"/>
    <path class="cls-1" d="M150.59,93.48c0-1.01.82-1.82,1.83-1.82s1.85.82,1.85,1.82-.81,1.86-1.85,1.86-1.83-.83-1.83-1.86"/>
    <path class="cls-1" d="M217.75,98.84v15.53h-2.93v-12.04c0-1.55-.13-2.87-1.62-3.38v-.12h4.57-.01Z"/>
    <path class="cls-1" d="M214.22,93.48c0-1.01.82-1.82,1.83-1.82s1.85.82,1.85,1.82-.81,1.86-1.85,1.86-1.83-.83-1.83-1.86"/>
    <path class="cls-1" d="M171.24,98.84l-6.71,15.6h-1l-5.54-12.31c-.63-1.4-1.34-2.77-2.39-3.17v-.12h4.08l3.6,8.45c.18.43.65,1.52.9,2.47.22-.96.6-1.93.81-2.47l3.36-8.45h2.89,0Z"/>
    <path class="cls-1" d="M175.12,106.93c.22,3.3,2.26,5.25,4.97,5.49,2.18.18,3.99-.32,5.51-1.2l.37,2.19c-1.58.93-3.53,1.39-5.82,1.39-4.74,0-8.04-3.36-8.04-8.15s3.23-8.17,7.51-8.17,6.91,2.86,6.91,7.84v.64h-11.4ZM175.23,104.99h8.4c-.18-2.74-1.68-4.34-4.06-4.34s-4.02,1.67-4.34,4.34"/>
    <path class="cls-1" d="M196.85,101.14c-2.58.18-3.89,2.51-3.89,6.02v7.22h-2.93v-12.04c0-1.55-.13-2.86-1.62-3.37v-.12h4.44c0,.35.03,3.53.03,3.53,1.08-2.83,3.13-3.88,4.72-3.88.84,0,1.76.1,2.65.9-.06.22-.65,2.09-.78,2.5-.65-.5-1.65-.82-2.61-.76"/>
    <path class="cls-1" d="M211.31,110.05c0,3.71-3.62,4.74-5.61,4.74-1.83,0-3.45-.39-4.69-1.16v-2.74c1.33,1.05,2.98,1.66,4.71,1.66,1.94,0,2.72-1.08,2.77-2.1.04-1.06-.65-1.84-1.85-2.42-1.04-.51-2.09-1.03-2.63-1.31-1.36-.71-2.89-1.76-2.89-3.93,0-3.21,3-4.31,5.27-4.31,1.74,0,3.16.32,4.21.99v2.54c-1.22-.87-2.45-1.29-4.03-1.29s-2.55.62-2.59,1.65c-.03,1.02.67,1.47,1.47,1.93.77.43,1.72.86,2.93,1.49,1.43.75,2.92,1.79,2.92,4.25"/>
    <path class="cls-1" d="M247.66,98.84l-10.73,23.27h-2.93l4.85-10.49-4.65-9.5c-.7-1.41-1.37-2.79-2.59-3.16v-.12h4.3l4.47,9.59,4.37-9.59h2.91Z"/>
    <path class="cls-1" d="M62.81,112.54c1.22,0,2.22-.36,3.28-.96v2.24c-1.07.62-2.46.96-3.64.96-3.07,0-4.97-1.74-4.97-4.77v-8.88h-2.49l5.4-6.05v3.78h4.9v2.27h-4.91v8.71c0,2,1.2,2.71,2.44,2.71"/>
    <path class="cls-1" d="M66.9,106.62c0-4.65,3.58-8.17,8.35-8.17s8.35,3.44,8.35,8.17c0,4.05-2.89,8.15-8.41,8.15-4.72,0-8.27-3.51-8.27-8.15M69.95,106.62c0,3.41,2.23,5.88,5.3,5.88s5.3-2.47,5.3-5.88-2.23-5.9-5.3-5.9-5.3,2.48-5.3,5.9"/>
    <path class="cls-1" d="M38.93,114.37h3.25l-9.8-22.94h-4.46v.13c1.26.6.95,2.12.11,4.2l-7.69,18.61h2.85l2.84-7.05h9.9l3,7.05ZM26.95,105.05l3.91-9.71,4.11,9.71s-8.02,0-8.02,0Z"/>
    <path class="cls-1" d="M86.94,102.34c0-1.55-.13-2.87-1.62-3.38v-.12h4.34l.09,2.42c1.53-2.39,3.71-2.83,5.31-2.83,1.21,0,5.14.42,5.14,5.91v10.01h-2.93v-10.05c0-2.27-1.22-3.64-3.27-3.64-1.59,0-3.12,1.02-4.1,2.75v10.93h-2.94v-12.04h-.01Z"/>
    <path class="cls-1" d="M53.79,109.91c.05,3.7-3.47,4.86-5.48,4.87-1.91.02-3.5-.3-4.74-1.03v-2.73c1.36,1.01,2.87,1.54,4.69,1.53,1.88-.02,2.71-1.09,2.73-2.15.02-1.07-.69-1.82-1.92-2.37-1.05-.48-2.12-.97-2.67-1.23-1.37-.68-2.94-1.69-3-3.85-.09-3.25,3.04-4.42,5.22-4.45,1.74-.02,3.15.25,4.21.88v2.54c-1.26-.82-2.37-1.2-3.98-1.19-1.57.02-2.58.69-2.59,1.72,0,1.01.7,1.45,1.53,1.88.78.41,1.74.81,2.97,1.42,1.45.71,2.99,1.72,3.02,4.18"/>
    <path class="cls-1" d="M190.06,126.04H20.34v23.64h169.72v-23.64ZM41.72,140.71c0,1.89-1.54,2.89-3.88,2.89h-4.86v-10.49h4.71c2.11,0,3.45,1.04,3.45,2.68,0,1.29-.73,1.95-1.5,2.35,1.22.42,2.08,1.13,2.08,2.55M47.25,143.59h-1.84v-10.49h1.84v10.49ZM57.62,139.62l2.84,3.97h-2.18l-2.58-3.65h-2.31v3.65h-1.84v-10.49h4.68c2.41,0,3.9,1.28,3.9,3.33,0,1.73-1.03,2.79-2.5,3.19M74.22,143.6h-1.84v-7.52l-3.31,4.95h-.06l-3.28-4.91v7.49h-1.82v-10.49h1.96l3.19,4.97,3.19-4.97h1.96v10.49h.01ZM80.36,143.6h-1.84v-10.49h1.84v10.49ZM93.81,143.6h-1.54l-5.78-7.47v7.47h-1.82v-10.49h1.71l5.62,7.25v-7.25h1.81v10.49h0ZM107.36,142.15c-1.04.89-2.52,1.63-4.37,1.63-3.28,0-5.44-2.34-5.44-5.41s2.25-5.44,5.41-5.44c1.83,0,2.96.51,4.03,1.43l-1.17,1.4c-.81-.69-1.6-1.13-2.93-1.13-1.94,0-3.4,1.68-3.4,3.71,0,2.18,1.43,3.76,3.57,3.76.99,0,1.88-.31,2.53-.79v-1.96h-2.68v-1.6h4.47v4.41h-.01ZM119.95,143.6h-1.84v-4.42h-5.01v4.42h-1.84v-10.49h1.84v4.36h5.01v-4.36h1.84v10.49ZM134.18,143.6h-1.95l-1.06-2.53h-4.96l-1.08,2.53h-1.89l4.61-10.56h1.71l4.61,10.56h.01ZM147.8,143.6h-1.84v-7.52l-3.31,4.95h-.05l-3.28-4.91v7.49h-1.81v-10.49h1.96l3.19,4.97,3.19-4.97h1.96v10.49h-.01ZM166.8,139.07c0,3.13-1.76,4.71-4.51,4.71s-4.47-1.58-4.47-4.61v-6.04h1.84v5.96c0,1.95,1.01,3,2.65,3s2.64-.99,2.64-2.92v-6.04h1.84v5.95h.01ZM175.57,137.63l4.56,5.98h-2.23l-3.58-4.72-1.63,1.68v3.04h-1.84v-10.49h1.84v5.27l4.99-5.27h2.26l-4.36,4.51h0ZM126.89,139.45h3.62l-1.81-4.2-1.8,4.2h-.01ZM56.12,138.32c1.32,0,2.15-.68,2.15-1.76,0-1.16-.81-1.75-2.18-1.75h-2.68v3.52h2.71ZM39.9,140.53c0-.9-.7-1.43-2.15-1.43h-2.92v2.88h3.05c1.26,0,2.02-.5,2.02-1.45M39.32,136.1c0-.86-.66-1.34-1.84-1.34h-2.65v2.78h2.52c1.18,0,1.98-.47,1.98-1.44"/>
  </g>
</svg>