<?xml version="1.0" encoding="UTF-8"?>
<svg id="Layer_1" data-name="Layer 1" xmlns="http://www.w3.org/2000/svg" viewBox="0 0 268 204">
  <path d="M236.35,70.81l4.6,13.04,3.55,8.12v-21.15h6.52v35.26h-7.87l-9.5-22.24v22.78c-1.95-1.04-4.35-.36-6.52-.54v-34.44l.81-.81h8.42Z"/>
  <path d="M106.31,70.81h14.66c.17,0,2.8.99,3.17,1.17,2.27,1.08,3.58,3.02,4.45,5.32,1.76,4.69,1.85,15.36.71,20.28-.93,4.02-3.13,7.39-7.33,8.41-.82.2-1.69.02-2.57.15-.33.05-.51.48-.61.48h-12.49l-.81-.81v-34.17l.81-.81ZM113.1,76.78v23.32c2.82-.05,6.77.69,8.43-2.16s1.63-10.56,1.36-13.87c-.17-2.06-.96-4.26-1.7-6.17-2.65-1.43-5.15-1.19-8.1-1.13Z"/>
  <path d="M184.77,106.61h-7.6l-1.63-8.14h-10.85s-1.64,8.13-1.64,8.13h-7.05s9.78-35.78,9.78-35.78c2.65.24,5.86-.36,8.42-.03.48.06.79.1,1.09.54.19.68.49,1.35.7,2.02,2.88,9.14,5.54,19.24,7.8,28.55.38,1.57,1.4,2.89.99,4.71ZM166.85,92.51c1.4-.24,6.66.67,7.06-.83l-3.26-13.27c-1.25.26-.9,1.18-1.08,1.91-.62,2.5-1.12,5.04-1.72,7.5-.38,1.55-1.43,2.87-1,4.7Z"/>
  <path d="M195.08,85.46l9.21-14.4,7.08-.25c.03,1.84-1.69,3.12-2.44,4.34-2.49,4.03-4.92,8.1-7.25,12.2l9.69,18.71h-8.14c-1.46-4.92-5.28-9.71-6.97-14.47-.31-.88.42-1.52-1.17-1.26v15.73h-7.6v-34.44l1.34-.83c1.22.14,6.26-.46,6.26.83v13.83Z"/>
  <polygon points="153.28 70.81 153.28 76.78 142.14 76.78 141.36 77.62 141.33 84.37 152.19 84.37 152.19 90.88 141.33 90.88 141.33 100.1 153.28 100.1 153.28 106.07 134.27 106.07 134.27 70.81 153.28 70.81"/>
  <path d="M81.54,71.42c.16.16.07.74.33,1.01,6.51,6.69,10.41,13.72,11.69,23.05,4.54,32.92-30.45,57.27-59.94,41.43-23.24-12.48-28.23-42.91-11.67-62.79l.93-.12c14.56-17.4,40.99-18.54,57.65-2.92.28.26.85.18,1.01.33ZM82.08,128.24c.16-.16.07-.73.33-1.01,16.71-17.76,12.05-47.67-8.75-60.15-23.56-14.13-54.36-.58-59.38,26.24-.44,2.37-.34,3.7-.53,5.98-.06.7-.67,1.19-.58,2.16.7,8.15,2.94,16.28,7.91,23.05,6.21,8.46,16.18,14.27,26.59,15.75.77.11,5.05.6,5.44.56,11.43-.98,19.78-4.11,27.97-12.24.26-.26.85-.17,1.01-.33Z"/>
  <path d="M215.17,106.07v-34.44l.84-.79,6.22.24v4.35c.41,8.94-.24,18.46-.03,27.67.02.73.26,1.99.56,2.69l-1.06.53-6.53-.26Z"/>
  <path d="M126.67,120.17v12.2l-.84.79-2.42.03v-19.53l2.74.25,4.6,6.8,4.61,5.97v-12.75c.88-1.19,2.38-1.19,3.26,0v18.44c0,.93-3.19,1.33-3.81.01l-8.13-12.22Z"/>
  <path d="M191.55,113.66c.1.02,1.68.67,1.91.8,2.47,1.38,2.77,11.09-1.64,10.59l3.8,7.32c-.74,1.09-2.14,1.05-3.28.57l-4.33-7.34c-1.34.6-2.46-.49-3.22.83l-.02,6.76h-3.26v-18.71l.81-.81c2.83.33,6.54-.45,9.23,0ZM184.77,122.88l5.99-.26c1.51-.76,1.24-3.72.82-5.19-1.91-1.67-4.48-.92-6.81-1.06v6.51Z"/>
  <path d="M177.71,113.12v2.71h-8.69v5.42h7.6v3.25h-7.6v5.42h8.42c1.03.68.86,1.56.81,2.71h-12.49v-18.71l.81-.81h11.13Z"/>
  <path d="M108.21,113.12v13.83c0,.1.68,1.72.8,1.91,1.9,3.11,7.38,1.92,7.9-1.9.28-2.04-.49-12.84,0-13.29l2.7-.55v16.54c0,.14-1.49,2.08-1.61,2.19-.44.39-2.89,1.27-3.53,1.35-2.46.32-6.95-.32-8.17-2.71-.18-.35-.76-2.53-.81-2.99-.47-4.32.36-9.42.02-13.83l2.7-.55Z"/>
  <polygon points="155.45 128.31 158.61 118.72 159.8 113.67 163.05 113.66 156.82 132.67 153.83 133.18 147.85 113.66 150.8 113.69 151.6 114.52 155.45 128.31"/>
  <path d="M209.2,113.66c.03,1.15.24,2.03-.81,2.69-3.38-1.3-8.49-.99-6.19,3.77,3.86,1.83,8.27,3.98,7.56,9.02-.21,1.5-2.16,3.67-3.61,3.98-1.01.22-6.62.27-7.48.02-.48-.14-.96-.95-1.38-1.3l1.36-1.88c1.17-.34,1.81.42,2.68.53,2.13.27,3.26-.46,5.13-1.14l.62-1.86c.02-1.81-4.25-3.44-5.46-4.34-6.45-4.81-2.72-10.85,4.62-10.04.89.1,1.82.91,2.98.55Z"/>
  <path d="M245.58,133.19l-2.42-.03-.81-.81-.1-6.95c-.96-3.02-4.94-8.09-5.37-10.91-.15-1.03.04-.78.82-.82s1.63,0,2.43.01c.82,2.56,2.1,4.97,3.19,7.41.31.7-.12.9,1.17.72.93-2.1,2.19-5.89,3.52-7.61.73-.95,2.38-.41,3.54-.53.3,1-.25,1.31-.55,1.89-.77,1.53-5.42,9.21-5.42,9.77v7.87Z"/>
  <path d="M234.18,113.66v2.71s-5.43,0-5.43,0l-.03,15.97-.81.81-2.42.03v-16.81h-5.43c-.04-1.15-.21-2.03.81-2.71h13.3Z"/>
  <path d="M142.42,113.66h2.71c.11.9.49,1.44.57,2.42.43,5.2-.33,10.99-.05,16.26l-.81.81-2.42.03v-19.53Z"/>
  <rect x="214.09" y="113.66" width="2.71" height="19.53"/>
  <path d="M74,80.03v29.56c0,.17-.49,2.61-.63,3.17-5.13,22.13-37.02,21.21-40.71-.94-.06-.33-.48-.52-.48-.61v-31.19h41.81ZM70.2,113.12c.28-.26-1.36-3.38-1.7-4-4.1-7.37-8.48-14.66-12.89-21.84-.82-1.34-1.1-3.01-2.52-3.99l-1.87,3.05,14.89,26.25,4.08.53ZM50.11,89.8c-1.51-.11-2.05,1.46-2.68,2.5l11.1,19.73c.98,1.52,2.45,1.07,4.07,1.09l-12.49-23.32ZM55.54,113.12l-8.76-15.93-1.56-1.43-1.61,3.48,8.43,13.84,3.49.04ZM42.51,102.81c-.65-.77-2.61,2.21-2.69,2.94l4.29,7.13c1.41.74,2.37.44,3.83.24l-5.43-10.31ZM40.34,113.12l-.26-1.64-1.64-2.7c-.55.61-2.92,3.88-2.44,4.34h4.34Z"/>
</svg>