<?xml version="1.0" encoding="UTF-8"?>
<svg id="Layer_1" data-name="Layer 1" xmlns="http://www.w3.org/2000/svg" viewBox="0 0 268 204">
  <defs>
    <style>
      .cls-1 {
        fill: #0a70a3;
      }
    </style>
  </defs>
  <path class="cls-1" d="M40.31,131.17l-2.29.04-.14-.14c-.07-.95-.07-1.66-.18-2.64l-.14-1.87h-5.32l-.85,1.59-1.34,2.68-.07.21-.18.11-2.22.04-.11-.21c.39-.71,6.17-10.93,8.18-14.81l.18-.11,3-.07.11.11c.11,1.8.88,9.91,1.48,14.95l-.11.14ZM36.93,117.53l-3.81,7.26,1.45.04h2.93l-.56-7.3Z"/>
  <path class="cls-1" d="M50.82,131.13c-.71,0-1.23,0-1.97.07l-.11-.18.18-.81c-.71.49-1.59,1.09-3.07,1.09-2.57,0-4.05-1.9-4.05-4.27,0-1.16.42-2.71,1.13-3.88,1.8-2.86,4.62-3.21,6.77-3.21l1.48.04,1.06-5.29.14-.14,2.29-.39.11.14c-1.41,5.52-2.66,11.08-3.77,16.68l-.18.14ZM50.82,121.62c-.33-.06-.66-.08-.99-.07-2.93,0-4.34,1.27-5.11,2.89-.14.35-.53,1.27-.53,2.29,0,1.59.88,2.82,2.64,2.82.53,0,1.87-.35,2.43-1.06l1.55-6.87Z"/>
  <path class="cls-1" d="M58.68,131.13l-2.47.11-.21-.14c-.18-1.97-.99-8.53-1.23-10.82l.11-.18c.81,0,1.41,0,2.19-.11l.14.14.25,3.28.53,5.99,4.69-9.24.21-.11h1.97l.11.14-2.12,3.63-1.8,3.24-2.19,3.95-.18.11Z"/>
  <path class="cls-1" d="M73.31,131.17h-.56l-1.45.04-.11-.14.14-.85c-.99.81-2.08,1.06-3.1,1.06-2.54,0-3.98-1.87-3.98-4.16,0-1.55.71-3.03,1.02-3.6,1.76-3.14,4.94-3.49,7.19-3.49l3.17.04.11.14c-1.76,7.58-2.01,8.78-2.29,10.82l-.14.14ZM69.18,129.62c.67,0,1.73-.28,2.47-1.06.53-2.19.95-4.44,1.55-6.87l-.92-.07c-2.04,0-4.12.67-5.22,3.17-.3.69-.45,1.43-.46,2.19,0,1.52.92,2.64,2.57,2.64"/>
  <path class="cls-1" d="M85.65,131.17c-.81,0-1.34,0-2.15.07l-.11-.18.92-3.77.49-2.47c.07-.32.25-.99.25-1.55,0-1.59-1.41-1.66-1.83-1.66-1.3,0-2.33.78-2.82,1.13-.6,2.75-1.2,5.53-1.73,8.28l-.14.14c-.81,0-1.37,0-2.19.07l-.11-.18c.71-2.82,2.04-8.74,2.26-10.68l.14-.14,2.26-.35.11.11-.28,1.09c1.55-1.2,3.1-1.3,3.6-1.3.63,0,3.07.11,3.07,2.86,0,.71-.25,2.12-.71,4.12l-.32,1.52c-.21,1.06-.39,1.76-.53,2.75l-.18.14Z"/>
  <path class="cls-1" d="M96.54,130.82c-.74.42-2.01.6-2.75.6-2.75,0-4.65-2.08-4.65-4.79,0-1.76.74-4.51,3.1-5.96,1.23-.74,2.54-.85,3.14-.85,1.48,0,2.64.35,3.31.85l.04.14-.53,1.69-.21.07c-.35-.56-1.27-1.06-2.4-1.06-2.68,0-4.12,2.82-4.12,4.94,0,2.5,1.94,3.24,2.96,3.24.35,0,1.48-.04,2.61-1.02l.18.07c-.25.71-.35,1.2-.53,1.94l-.14.14Z"/>
  <path class="cls-1" d="M100.6,131.13l-2.29.07-.11-.14c.71-2.47,2.22-9.52,2.33-10.68l.14-.14c.88-.11,1.48-.18,2.33-.35l.11.18c-.11-.04-1.87,8.11-2.36,10.96l-.14.11ZM103.63,117.03l-2.22.35-.14-.21.46-1.94.18-.18,2.22-.28.18.14-.49,1.97-.18.14Z"/>
  <path class="cls-1" d="M112.94,131.17c-.81,0-1.37,0-2.19.07l-.07-.18c.28-1.41.6-2.36.88-3.77l.53-2.47c.07-.32.25-.99.25-1.55,0-1.59-1.41-1.66-1.83-1.66-1.3,0-2.33.78-2.82,1.13-.6,2.75-1.23,5.53-1.76,8.28l-.11.14c-.81,0-1.41,0-2.19.07l-.11-.18c.71-2.82,2.04-8.74,2.22-10.68l.18-.14,2.26-.35.11.11-.32,1.09c1.59-1.2,3.1-1.3,3.6-1.3.67,0,3.1.11,3.1,2.86,0,.71-.28,2.12-.71,4.12l-.32,1.52c-.21,1.06-.39,1.76-.53,2.75l-.18.14Z"/>
  <path class="cls-1" d="M127.85,120.21c-.6,2.4-1.13,4.58-1.62,7.02l-.6,2.82c-.78,3.53-1.41,6.52-6.06,6.52-1.27,0-3.17-.28-4.41-1.59v-.18c.35-.49.53-.85.85-1.37h.18c.6.74,1.66,1.52,3.24,1.52,3.17,0,3.42-2.93,3.67-3.67l.21-.88c-1.41.99-2.68,1.02-3.14,1.02-2.5,0-3.84-1.94-3.84-4.16,0-.53.07-2.36,1.23-4.09,1.97-3.1,5.22-3.1,7.65-3.1l2.57-.07.07.21ZM125.24,121.72h-.85c-1.9,0-3.98.32-5.18,2.82-.49,1.13-.56,1.97-.56,2.47,0,2.22,1.41,2.71,2.47,2.71,1.2,0,2.08-.6,2.54-1.06l1.59-6.95Z"/>
  <path class="cls-1" d="M139.66,131.17l-2.26.04-.11-.14c.53-2.08,2.93-11.99,3.1-13.22-2.33,0-3.35.07-4.37.11l-.11-.14c.18-.63.35-1.06.46-1.66l.18-.11c3.58.1,7.17.09,10.75-.04l.11.14-.49,1.66-.14.11c-.85-.07-2.12-.07-3.98-.07-.42,1.41-.6,2.5-.95,4.02l-1.06,4.87c-.35,1.45-.67,2.82-.92,4.3l-.21.14Z"/>
  <path class="cls-1" d="M152.67,130.57c-.71.42-1.83.85-3.49.85-3.67,0-4.94-2.19-4.94-4.62,0-3.74,2.26-6.98,5.99-6.98,2.47,0,4.3,1.16,4.3,3.98,0,.88-.21,1.62-.28,1.97l-.14.07h-5.01l-2.61.04-.07.92c0,2.82,2.43,2.89,3.17,2.89,1.8,0,2.71-.71,3.53-1.3l.21.11c-.25.71-.39,1.2-.56,1.94l-.11.14ZM152.38,124.33l.11-.92c-.04-1.94-1.66-2.12-2.19-2.12-2.47,0-3.31,2.29-3.53,3.07h5.64"/>
  <path class="cls-1" d="M163.07,130.82c-.71.42-2.01.6-2.75.6-2.75,0-4.65-2.08-4.65-4.79,0-1.76.78-4.51,3.1-5.96,1.27-.74,2.54-.85,3.14-.85,1.48,0,2.68.35,3.31.85l.07.14c-.25.63-.35,1.06-.53,1.69l-.21.07c-.35-.56-1.3-1.06-2.43-1.06-2.68,0-4.12,2.82-4.12,4.94,0,2.5,1.94,3.24,2.96,3.24.35,0,1.48-.04,2.61-1.02l.18.07c-.25.71-.35,1.2-.53,1.94l-.14.14Z"/>
  <path class="cls-1" d="M174.21,131.17l-2.15.04-.11-.14.6-2.47.6-2.68c.14-.56.49-2.22.49-2.82,0-1.48-1.3-1.52-1.69-1.52-1.34,0-2.61.88-2.96,1.2l-.85,3.81c-.35,1.48-.6,2.93-.92,4.44l-.14.11-2.15.07-.14-.14c.32-1.37,3.24-13.18,3.56-16.39l.18-.11,2.33-.39.11.14c-.6,2.26-1.06,4.48-1.62,6.77.67-.46,1.94-1.27,3.7-1.27.56,0,2.93.14,2.93,2.68,0,.95-.18,1.94-.35,2.71l-.6,2.57-.63,3.24-.18.14Z"/>
  <path class="cls-1" d="M186.58,131.17c-.81,0-1.37,0-2.15.07l-.11-.18c.28-1.41.6-2.36.88-3.77l.53-2.47c.07-.32.25-.99.25-1.55,0-1.59-1.41-1.66-1.83-1.66-1.3,0-2.33.78-2.82,1.13-.6,2.75-1.2,5.53-1.73,8.28l-.14.14c-.81,0-1.37,0-2.19.07l-.11-.18c.71-2.82,2.04-8.74,2.22-10.68l.18-.14,2.26-.35.11.11-.28,1.09c1.55-1.2,3.1-1.3,3.56-1.3.67,0,3.1.11,3.1,2.86,0,.71-.25,2.12-.71,4.12l-.32,1.52c-.21,1.06-.39,1.76-.53,2.75l-.18.14Z"/>
  <path class="cls-1" d="M195.96,119.82c2.64,0,4.58,1.34,4.58,4.2,0,2.26-1.06,7.4-6.1,7.4-1.34,0-4.44-.32-4.44-4.27,0-3.45,1.9-7.33,5.96-7.33M194.51,129.83c3.21,0,3.74-5.22,3.74-5.92,0-2.08-1.23-2.54-2.22-2.54-2.93,0-3.74,4.41-3.74,5.92,0,1.37.63,2.54,2.22,2.54"/>
  <path class="cls-1" d="M203.82,131.17c-.78,0-1.37,0-2.19.07l-.07-.14c.32-1.73,2.61-11.1,3.35-16.43l.14-.14c.88-.11,1.48-.21,2.36-.39l.11.11c-1.06,4.62-3.24,14.81-3.53,16.78l-.18.14Z"/>
  <path class="cls-1" d="M213.09,119.82c2.64,0,4.58,1.34,4.58,4.2,0,2.26-1.06,7.4-6.06,7.4-1.34,0-4.44-.32-4.44-4.27,0-3.45,1.87-7.33,5.92-7.33M211.65,129.83c3.24,0,3.77-5.22,3.77-5.92,0-2.08-1.27-2.54-2.22-2.54-2.96,0-3.77,4.41-3.77,5.92,0,1.37.63,2.54,2.22,2.54"/>
  <path class="cls-1" d="M230.58,120.21c-.6,2.4-1.16,4.58-1.66,7.02l-.6,2.82c-.74,3.53-1.37,6.52-6.06,6.52-1.27,0-3.17-.28-4.41-1.59v-.18l.88-1.37h.18c.56.74,1.62,1.52,3.21,1.52,3.17,0,3.45-2.93,3.7-3.67l.18-.88c-1.41.99-2.64,1.02-3.14,1.02-2.5,0-3.84-1.94-3.84-4.16,0-.53.11-2.36,1.23-4.09,2.01-3.1,5.22-3.1,7.65-3.1l2.57-.07.11.21ZM227.93,121.72h-.85c-1.9,0-3.98.32-5.15,2.82-.53,1.13-.6,1.97-.6,2.47,0,2.22,1.41,2.71,2.5,2.71,1.2,0,2.04-.6,2.5-1.06l1.59-6.95Z"/>
  <path class="cls-1" d="M242.14,120.21c-3.27,5.26-6.4,10.61-9.38,16.04l-.18.11h-.95l-1.27.04-.07-.14c.63-.95,2.75-4.23,3.28-5.18-.85-5.29-1.62-10.58-1.73-10.86l.14-.14c.81,0,1.41-.04,2.22-.11l.18.11c.11,1.2.18,2.01.35,3.17l.6,5.04,2.08-3.67c.81-1.41,1.62-2.89,2.4-4.44l.14-.11h.71l1.41-.04.07.18Z"/>
  <path class="cls-1" d="M107.05,157.47c-.81,0-1.37,0-2.15.07l-.11-.14c.74-3.45.35-1.41,2.08-9.41h-1.62l-.14-.11.39-1.41.18-.18c.5.05,1.01.07,1.52.07l.32-1.55c.46-2.29.88-4.23,3.88-4.23.74,0,1.23.14,1.55.21l.11.18-.39,1.45-.18.14c-.14,0-.42-.14-.81-.14-1.37,0-1.59.88-1.97,2.57l-.28,1.37h2.04l.11.14c-.18.42-.28.85-.42,1.37l-.18.14-1.87-.04c-.71,3.38-1.41,5.99-1.87,9.34l-.18.14Z"/>
  <path class="cls-1" d="M117.02,146.12c2.64,0,4.58,1.34,4.58,4.2,0,2.22-1.06,7.4-6.1,7.4-1.34,0-4.44-.35-4.44-4.27,0-3.49,1.9-7.33,5.96-7.33M115.58,156.13c3.21,0,3.74-5.22,3.74-5.96,0-2.04-1.23-2.5-2.22-2.5-2.93,0-3.77,4.37-3.77,5.92,0,1.37.67,2.54,2.26,2.54"/>
  <path class="cls-1" d="M124.78,157.47h-2.22l-.11-.11c.88-3.35,2.12-8.85,2.33-10.68l.14-.14,2.33-.35.11.14-.49,1.87c.35-.53,1.27-2.12,2.82-2.12.46,0,.74.11.95.25l.07.18c-.35.78-.53,1.3-.85,2.12l-.21.04c-.26-.18-.57-.28-.88-.28-.6,0-1.9.28-2.57,3.07-.21.81-1.06,4.48-1.23,5.85l-.18.18Z"/>
  <path class="cls-1" d="M148.01,157.43l-2.33.04-.07-.11,1.66-7.19h-4.44c-.92,0-1.59,0-2.54.07-.6,2.33-1.06,4.72-1.52,7.09l-.18.14h-2.29l-.11-.11c.25-.99,2.89-12.23,3.35-14.88l.14-.14,2.29-.04.11.11c-.6,2.57-.56,2.19-1.41,5.99h1.48c1.9,0,4.05,0,5.5-.07l1.27-5.85.14-.14,2.29-.04.11.11c-1.34,5.78-2.82,12.23-3.31,14.88l-.14.14Z"/>
  <path class="cls-1" d="M160.46,157.43l-2.12.07-.11-.14.25-1.02c-1.09.92-2.33,1.34-3.49,1.34-2.61,0-3.17-1.76-3.17-2.93,0-.78.18-1.59.56-3.28l.46-2.01.6-2.93.14-.14c.81,0,1.34-.07,2.15-.11l.11.14c-.78,3.24-1.66,6.63-1.66,7.61,0,.6.18,1.83,1.83,1.83.95,0,1.94-.42,2.82-1.23,1.13-5.01,1.62-7.4,1.73-8.11l.18-.14c.78,0,1.34-.07,2.15-.11l.11.14c-.71,2.5-2.19,9.41-2.4,10.86l-.14.14Z"/>
  <path class="cls-1" d="M179.14,157.47h-2.12l-.14-.11c.35-1.27.63-2.57.92-3.81l.39-1.66c.32-1.27.42-2.12.42-2.5,0-1.41-1.23-1.48-1.59-1.48-1.34,0-2.4.78-2.86,1.16,0,.46-.14,1.48-.46,2.82l-.49,2.26c-.25,1.06-.46,2.08-.63,3.17l-.14.14h-2.15l-.11-.14c.35-1.3,1.66-6.56,1.66-7.9,0-1.41-1.2-1.52-1.62-1.52-1.13,0-2.19.81-2.57,1.13l-.71,3.17c-.42,1.9-.71,3.21-1.06,5.11l-.14.11c-.81,0-1.34,0-2.12.07l-.14-.14c.81-3.17,2.04-8.92,2.26-10.72l.14-.11,2.26-.35.14.14-.28,1.06c1.05-.82,2.34-1.26,3.67-1.27.49,0,1.76.14,2.33,1.55,1.76-1.41,3.45-1.55,4.02-1.55,1.59,0,2.93.85,2.93,2.61,0,.71-.18,1.52-.35,2.36l-.35,1.62c-.42,1.69-.6,2.89-.95,4.62l-.14.14Z"/>
  <path class="cls-1" d="M191.48,157.47h-1.97l-.11-.11.14-.85c-1.02.81-2.08,1.06-3.14,1.06-2.5,0-3.95-1.87-3.95-4.16,0-1.59.71-3.07,1.02-3.6,1.76-3.14,4.94-3.53,7.16-3.53l3.17.07.14.14c-1.76,7.54-2.01,8.78-2.29,10.82l-.18.14ZM187.36,155.92c.71,0,1.76-.32,2.47-1.06.56-2.19.99-4.44,1.59-6.91h-.95c-2.04,0-4.12.6-5.18,3.17-.11.28-.46,1.13-.46,2.12,0,1.55.88,2.68,2.54,2.68"/>
  <path class="cls-1" d="M203.85,157.47l-2.19.04-.07-.14c.28-1.41.6-2.4.88-3.81l.53-2.43c.07-.32.21-.99.21-1.59,0-1.59-1.37-1.62-1.8-1.62-1.3,0-2.33.74-2.82,1.13-.6,2.75-1.23,5.5-1.76,8.28l-.14.14-2.15.04-.11-.14c.71-2.82,2.04-8.74,2.22-10.68l.18-.14,2.26-.39.11.14-.32,1.09c1.59-1.2,3.1-1.3,3.6-1.3.63,0,3.1.11,3.1,2.82,0,.71-.28,2.15-.71,4.16l-.32,1.52c-.21,1.02-.39,1.73-.53,2.75l-.18.14Z"/>
  <path class="cls-1" d="M209.11,157.43c-.85,0-1.45,0-2.29.07l-.11-.14c.71-2.47,2.22-9.52,2.33-10.68l.14-.14,2.33-.35.11.14c-.11,0-1.87,8.11-2.36,11l-.14.11ZM212.14,143.33l-2.22.32-.14-.18.46-1.97.18-.14,2.22-.28.18.14-.49,1.94-.18.18Z"/>
  <path class="cls-1" d="M216.69,157.4c-.71.18-1.27.21-1.55.21-2.01,0-2.54-1.06-2.54-2.12,0-.81.46-2.71,1.06-5.29l.56-2.22h-1.55l-.11-.14.35-1.41.18-.11h1.48c.25-.95.35-1.66.56-2.64l.18-.14,2.22-.53.11.11-.46,1.59-.39,1.66,2.33-.04.11.14-.46,1.41-.14.14-2.19-.04-1.16,4.83c-.11.42-.42,1.76-.42,2.19,0,.71.49.92,1.06.92s1.06-.21,1.27-.28l.11.11-.46,1.52-.14.14Z"/>
  <path class="cls-1" d="M229.73,146.51c-3.27,5.25-6.4,10.59-9.38,16.01l-.18.14h-2.22l-.07-.14c.63-.92,2.75-4.23,3.24-5.15-.81-5.29-1.59-10.58-1.69-10.86l.14-.14c.81,0,1.41-.04,2.22-.11l.18.11.32,3.17.63,5.04,2.04-3.7c.81-1.41,1.66-2.86,2.4-4.41l.18-.14h2.08l.11.18Z"/>
  <path class="cls-1" d="M98.02,49.7h13.22v47.73h-13.22v-47.73Z"/>
  <path class="cls-1" d="M118.15,97.43v-47.73h36.42v9.24h-23.16v9.87h21.29v9.27h-21.29v10.12h23.16v9.24h-36.42Z"/>
  <path class="cls-1" d="M161.97,97.43v-47.73h36.35v9.24h-23.13v9.87h21.29v9.27h-21.29v10.12h23.13v9.24h-36.35Z"/>
  <path class="cls-1" d="M205.76,97.43v-47.73h36.35v9.24h-23.13v9.87h21.29v9.27h-21.29v10.12h23.13v9.24h-36.35Z"/>
  <path class="cls-1" d="M55.58,50.23c2.12-1.66,4.76-.28,6.52,1.23,1.87,1.41,3.81,3.03,5.5,4.69l.32.18c4.72,4.31,8.97,9.11,12.69,14.31.56.92,1.06,1.94.74,3.1-1.2,3-3.63,5.39-5.75,8-4.49,5.03-9.48,9.58-14.91,13.57-1.13.78-2.61,1.48-3.91.88-3.98-2.12-7.4-5.53-10.86-8.67-4.2-3.81-7.97-8.08-11.21-12.73-.46-.63-.6-1.41-.6-2.29.42-1.59,1.48-2.89,2.54-4.23,3.8-4.7,8-9.07,12.55-13.04l.49-.39c1.9-1.69,3.84-3.17,5.85-4.62M61.71,45.4l-2.33-3.38c-.32-.18-.67-.42-.99-.56-.71-.28-1.48.07-2.04.53l-4.3,5.61c-6.92,8.68-15.06,16.33-24.15,22.7-.71.56-1.76,1.09-1.97,2.01-.25.81.21,1.52.71,2.01,7.34,5.05,14.08,10.91,20.09,17.49,1.09,1.13,1.97,2.26,3.03,3.35,1.8,2.36,3.88,4.76,5.53,7.3.53.56.6,1.41,1.41,1.69.63.21,1.41.35,2.01,0l.6-.6c7.54-10.62,16.77-19.93,27.32-27.57,1.06-.95,3.07-1.27,3.1-3.03-.08-.83-.53-1.59-1.23-2.04h-.18c-5.44-3.71-10.53-7.93-15.19-12.59l-5.22-5.43c-2.12-2.36-4.2-4.97-6.17-7.47M56.35,51.53c2.15-1.48,4.09.56,5.75,1.76,6.56,5.1,12.35,11.12,17.2,17.87.6.85.85,2.19.35,3.17-1.23,2.01-2.82,3.88-4.37,5.71v.11c-3.81,4.21-7.92,8.13-12.3,11.74-2.12,1.3-4.09,4.16-6.84,2.4-6.43-4.74-12.27-10.25-17.38-16.39-.85-1.37-2.19-2.47-2.82-3.98-.81-2.04,1.06-3.53,2.12-5.11,5.15-6.38,11.63-12.69,18.3-17.27M57.73,55.76l-.6,1.83-2.93,8.43c.71.07,1.66,0,2.36.07v.07l-.42,9.52.07.07c.95.11,2.12.14,3.07,0v-.18l-.39-9.2.07-.32,2.57-.04c-1.3-3.42-2.54-6.84-3.74-10.29l-.07.04ZM47.75,68.84c-1.66.85-4.05,2.12-3.81,4.34.35,1.23,1.69,2.04,2.75,2.54,5.82,2.57,13.57,2.64,19.74.74,1.48-.6,3.53-1.41,3.81-3.31,0-1.52-1.62-2.47-2.82-3.07v-.07c.42-.18.88-.35,1.3-.35v-.07c-2.04-.35-4.05-.88-6.03-1.41.35.88.63,1.76.95,2.71.63-.21,1.23-.35,1.87-.42,1.06.39,2.57.99,2.71,2.29.14,1.23-1.23,1.83-2.08,2.33-4.6,1.63-9.59,1.83-14.31.56-1.27-.42-3.17-.95-3.31-2.61.92-2.15,3.31-2.61,5.29-3.17-1.02-.63-2.04-1.23-3.07-1.97-1.06.07-2.04.53-3,.95M56.07,78.32c-.18,3.38-.21,6.49-.46,9.87,1.34.11,2.82.25,4.23.04l-.39-9.41-.07-.46c-1.09.04-2.12.07-3.31-.04"/>
  <path class="cls-1" d="M68.52,97.64c-1.16,0-2.22.81-2.22,2.22s1.06,2.22,2.22,2.22c1.17.06,2.16-.84,2.22-2,0-.07,0-.14,0-.22.06-1.17-.84-2.16-2-2.22-.07,0-.14,0-.22,0M68.52,101.56c-.88,0-1.59-.67-1.59-1.69s.71-1.69,1.59-1.69,1.59.71,1.59,1.69-.71,1.69-1.59,1.69M69.5,99.41c0-.56-.35-.71-.95-.71h-.92v2.36h.53v-1.02h.25l.53,1.02h.6l-.6-1.06c.35,0,.56-.18.56-.6M68.62,99.65h-.46v-.6h.35c.18,0,.46.04.46.28,0,.28-.14.32-.35.32"/>
</svg>