<?xml version="1.0" encoding="UTF-8"?>
<svg id="Layer_1" data-name="Layer 1" xmlns="http://www.w3.org/2000/svg" viewBox="0 0 268 204">
  <defs>
    <style>
      .cls-1 {
        fill: #2d5e9f;
      }
    </style>
  </defs>
  <path class="cls-1" d="M30.33,104.91v-6.26c1.04-3.58,2.36-6.72,4.62-9.71,16.16-21.42,62.06-28.83,87.31-30.02,30.81-1.44,80.17,3.27,104.57,23.84,22.74,19.16,5.71,37.88-14.65,47.71-35.12,16.97-89.63,18.14-127.21,9.76-16.72-3.73-45.68-13.34-53.01-30.35-.71-1.65-1.01-3.32-1.64-4.98ZM75.15,133.8c22.12,6.17,45.56,8.48,68.57,7.71,24.28-.81,62.56-6.72,81.56-22.76,21.83-18.42,1.85-35.67-16.71-43.75-29.24-12.72-64.69-14.11-96.14-11.95-3.24,2.04-6.46,4.14-9.57,6.33v15.53h-27.35s-.36.34-.36.36v48.52ZM84.5,67.66c-4.52.46-11.82,4.1-8.49,9.54,3.58,5.84,17.45,5.85,21.78.86,3.41-3.93.21-7.69-3.69-9.31-2.91-1.21-6.48-1.41-9.61-1.09Z"/>
  <path class="cls-1" d="M154.43,130.19h-24.1v-57.55h23.74s.36.34.36.36v57.18Z"/>
  <path class="cls-1" d="M178.29,86.61c-5.85,5.88-2.09,9,3.77,11.76,5.01,2.37,8.84,2.88,13.87,4.44,5.07,1.57,8.41,5.15,9.28,10.47,1.72,10.43-7.31,16.38-16.81,15.23,3.69-7.28-6.86-10.24-11.65-12.55-8.03-3.87-16.9-10.09-13.23-20.38,2.14-6,8.8-8.74,14.76-8.96Z"/>
  <path class="cls-1" d="M123.59,88.3v41.9c-11.27.42-22.55-8.19-23.14-19.85-.65-12.87,10.9-22.07,23.14-22.04Z"/>
  <path class="cls-1" d="M164.88,128.42c-6.82-6.46,4.43-16.42,10.03-8.94,5,6.66-4.03,14.64-10.03,8.94Z"/>
  <path class="cls-1" d="M190.42,87.66c5.42-5.35,14.64,1.65,10.32,8.51-5.11,8.12-17.47-1.46-10.32-8.51Z"/>
</svg>