<?xml version="1.0" encoding="UTF-8"?>
<svg id="Layer_1" data-name="Layer 1" xmlns="http://www.w3.org/2000/svg" xmlns:xlink="http://www.w3.org/1999/xlink" viewBox="0 0 300 100">
  <defs>
    <style>
      .cls-1 {
        fill: #92b75a;
      }

      .cls-2 {
        fill: url(#linear-gradient-2);
      }

      .cls-3 {
        fill: #d7e6d9;
      }

      .cls-4 {
        fill: #0b91b7;
      }

      .cls-5 {
        fill: url(#linear-gradient-4);
      }

      .cls-6 {
        fill: #028db5;
      }

      .cls-7 {
        fill: url(#linear-gradient-3);
      }

      .cls-8 {
        fill: #a0da48;
      }

      .cls-9 {
        fill: #0e93b8;
      }

      .cls-10 {
        fill: #8eb454;
      }

      .cls-11 {
        fill: #048eb5;
      }

      .cls-12 {
        fill: url(#linear-gradient);
      }
    </style>
    <linearGradient id="linear-gradient" x1="97.57" y1="22.46" x2="97.57" y2="76.33" gradientUnits="userSpaceOnUse">
      <stop offset="0" stop-color="#88b14b"/>
      <stop offset="1" stop-color="#adf146"/>
    </linearGradient>
    <linearGradient id="linear-gradient-2" x1="111.82" y1="18.66" x2="116.41" y2="42.66" gradientUnits="userSpaceOnUse">
      <stop offset="0" stop-color="#008db5"/>
      <stop offset="1" stop-color="#008db5"/>
    </linearGradient>
    <linearGradient id="linear-gradient-3" x1="106.4" y1="87" x2="134.74" y2="74.23" gradientUnits="userSpaceOnUse">
      <stop offset="0" stop-color="#88b14b"/>
      <stop offset="1" stop-color="#adf146"/>
    </linearGradient>
    <linearGradient id="linear-gradient-4" x1="124.04" y1="41.35" x2="137.32" y2="64.84" gradientUnits="userSpaceOnUse">
      <stop offset="0" stop-color="#008cb4"/>
      <stop offset="1" stop-color="#054576"/>
    </linearGradient>
  </defs>
  <g>
    <path class="cls-12" d="M97.53,56.69c-.35,4.06-.08,7.09,0,8.02.01.12.02.25.04.4.01.04.01.09.01.13.19,1.74.7,4.93,1.02,6.43.89,4.07,2.92,7.86,4.28,11.77-.83,1-9.97-9.78-10.71-10.7-2.09-2.6-3.24-3.9-4.83-6.96-1.84-3.53-2.33-5.24-3.21-9.09-2.56-11.16-2.55-21.79,2.93-32.11,2.51-4.74,4.65-5.99,5.53-6.44,2.35-1.21,5.02-1.27,10.36-1.41,2.22-.05,5.09.01,5.63.03,1.68.04,3.09.11,4.09.16-1.26.96-3.13,2.53-4.97,4.85-2.2,2.76-3.39,5.37-4.37,7.83,0,0-4.45,11.17-5.8,27.1Z"/>
    <path class="cls-2" d="M105.03,28.87c.63-1.52,1.55-3.35,2.88-5.28,1.62-2.35,3.35-4.1,4.76-5.33.18-.16.46-.38.84-.57.69-.35,1.31-.4,1.74-.43,0,0,.71-.05,1.38.07,1.08.19,4.03,2.55,5.8,8.35,1.24,4.06,2.5,9.42-.24,13.09-.99,1.32-6.07,4.95-7.5,4.3-1.41-.65-8.8-9.13-9.58-10.81-.64-1.4-.69-1.9-.08-3.38Z"/>
    <path class="cls-7" d="M137.38,77.07c-.07.2-.18.51-.3.89-.24.8-.25,1.02-.42,1.47-.06.15-.1.24-.73,1.32-.57.98-.86,1.47-1,1.66-.23.31-.29.36-.99,1.28-.26.34-.44.58-.45.59-9.35,9.74-27.74,7.45-31.67-6.18,7.37.88,16.25,1.31,23.05-2.14.44-.23,3.17-2.21,3.75-2.68.38-.31,1.24-1.08,2.68-2.67,1.16-1.28,2.67-3.06,4.29-5.35.36.77.72,1.6,1.07,2.47.32.81.61,1.59.87,2.34.16.84.29,1.86.3,3,.01,1.59-.2,2.94-.45,3.99Z"/>
    <path class="cls-6" d="M129,20.96c7.74-1.77,6.74,5.82,1.62,7.5-8.22,2.7-7.33-6.19-1.62-7.5Z"/>
    <path class="cls-8" d="M97.58,65.18s-.01-.05-.01-.07c-.02-.15-.03-.28-.04-.4.03.18.05.34.05.47Z"/>
    <path class="cls-5" d="M138.8,70.06c-1.62-4.22-3.28-6.87-4.36-8.38-.89-1.23-2.51-3.27-2.6-3.39-1.27-1.59-1.9-2.39-2.68-3.21-1.12-1.19-2.19-2.05-4.29-3.74-3.14-2.52-3.82-2.81-3.94-3.77-.18-1.36.97-2.52,2.47-4.04,1.52-1.54,3.18-3.22,4.94-2.86,1.13.23,1.95,1.24,3.02,2.56.28.35.68.93,1.47,2.11.45.66.89,1.32,1.43,2.19.52.84.94,1.52,1.36,2.36.69,1.37,1.06,2.49,1.28,3.17,1.32,4.11,1.7,9.37,1.82,11.77.07,1.29.12,3.08.09,5.23Z"/>
    <path class="cls-11" d="M121.78,20.18c-3.09-3.11,4.01-8.55,6.04-5.22,1.89,3.09-3.89,7.39-6.04,5.22Z"/>
    <path class="cls-4" d="M118.29,10.24c3.19-.64,3.69,3.69,1.2,5.51-4.33,3.16-5.27-4.7-1.2-5.51Z"/>
    <path class="cls-10" d="M112.94,14.3c-1.72,1.77-4.61-.54-3.23-3.48,1.89-4.05,5.88.76,3.23,3.48Z"/>
    <path class="cls-1" d="M107.04,14.29c-2.49,2.58-4.68-3.33-1.64-4.09,2.13-.53,3.01,2.67,1.64,4.09Z"/>
    <path class="cls-3" d="M137.73,68.46l-.54.53c-.26-.98-1.63-2.42-1.61-3.74h.54c.67,1.24,1.01,1.86,1.61,3.21Z"/>
  </g>
  <g>
    <path class="cls-9" d="M161.03,22.67c3.35-3.06,6.87-5.73,6.87-8.63,0-1.54-.64-2.59-2.29-2.59-1.56,0-2.39,1.13-2.45,2.8h-2.14c.08-3.2,2.06-4.76,4.57-4.76,2.88,0,4.51,1.8,4.51,4.46,0,3.59-3.5,6.32-5.78,8.49h6.17v1.92h-9.46v-1.68Z"/>
    <path class="cls-9" d="M177.04,9.52c3.97,0,5.06,3.24,5.06,7.46s-1.09,7.54-5.06,7.54-5.06-3.24-5.06-7.54,1.09-7.46,5.06-7.46ZM177.04,11.63c-2.59,0-2.88,2.59-2.88,5.35,0,2.9.29,5.43,2.88,5.43s2.88-2.53,2.88-5.43-.29-5.35-2.88-5.35Z"/>
    <path class="cls-9" d="M189.07,9.52c3.97,0,5.06,3.24,5.06,7.46s-1.09,7.54-5.06,7.54-5.06-3.24-5.06-7.54,1.09-7.46,5.06-7.46ZM189.07,11.63c-2.59,0-2.88,2.59-2.88,5.35,0,2.9.29,5.43,2.88,5.43s2.88-2.53,2.88-5.43-.29-5.35-2.88-5.35Z"/>
    <path class="cls-9" d="M201.09,9.52c3.97,0,5.06,3.24,5.06,7.46s-1.09,7.54-5.06,7.54-5.06-3.24-5.06-7.54,1.09-7.46,5.06-7.46ZM201.09,11.63c-2.59,0-2.88,2.59-2.88,5.35,0,2.9.29,5.43,2.88,5.43s2.88-2.53,2.88-5.43-.29-5.35-2.88-5.35Z"/>
    <path class="cls-9" d="M160.41,32.47h2.35l2.8,11.47,3.04-11.47h2.49l2.82,11.41,2.82-11.41h2.37l-4.01,14.08h-2.51l-2.84-10.66-3.02,10.66-2.49.02-3.83-14.1Z"/>
    <path class="cls-9" d="M184.81,35.21c1.81,0,3.05.89,3.72,1.8v-1.62h2.24v11.17h-2.24v-1.66c-.68.95-1.96,1.84-3.75,1.84-2.78,0-5.02-2.37-5.02-5.82s2.24-5.71,5.06-5.71ZM185.27,37.22c-1.65,0-3.25,1.3-3.25,3.71s1.6,3.81,3.25,3.81,3.25-1.36,3.25-3.77-1.58-3.75-3.25-3.75Z"/>
    <path class="cls-9" d="M193.58,37.28h-1.26v-1.88h1.26v-2.78h2.24v2.78h2.61v1.88h-2.61v6.18c0,.83.31,1.17,1.25,1.17h1.36v1.93h-1.75c-1.91,0-3.09-.83-3.09-3.1v-6.18Z"/>
    <path class="cls-9" d="M200.37,37.28h-1.26v-1.88h1.26v-2.78h2.24v2.78h2.61v1.88h-2.61v6.18c0,.83.31,1.17,1.25,1.17h1.36v1.93h-1.75c-1.91,0-3.09-.83-3.09-3.1v-6.18Z"/>
    <path class="cls-9" d="M165.96,68.7c-2.7,0-4.79-1.54-4.79-4.03h2.37c.1,1.16.88,2.09,2.41,2.09s2.43-.87,2.43-2.07c0-3.4-7.18-1.2-7.18-6.38,0-2.47,1.89-4.01,4.65-4.01,2.59,0,4.42,1.42,4.61,3.83h-2.45c-.08-.95-.88-1.82-2.28-1.86-1.28-.04-2.28.61-2.28,1.97,0,3.18,7.16,1.2,7.16,6.34,0,2.11-1.65,4.13-4.67,4.13Z"/>
    <path class="cls-9" d="M188,62.32c0-2.05-1.07-3.1-2.68-3.1s-2.7,1.05-2.7,3.1v6.24h-2.2v-6.24c0-2.05-1.07-3.1-2.69-3.1s-2.7,1.05-2.7,3.1v6.24h-2.22v-11.17h2.22v1.28c.72-.91,1.89-1.46,3.17-1.46,1.69,0,3.11.75,3.85,2.21.66-1.36,2.18-2.21,3.74-2.21,2.51,0,4.42,1.64,4.42,4.76v6.59h-2.2v-6.24Z"/>
    <path class="cls-9" d="M196.89,57.21c1.81,0,3.05.89,3.72,1.8v-1.62h2.24v11.17h-2.24v-1.66c-.68.95-1.96,1.84-3.75,1.84-2.78,0-5.02-2.37-5.02-5.82s2.24-5.71,5.06-5.71ZM197.35,59.22c-1.65,0-3.25,1.3-3.25,3.71s1.6,3.81,3.25,3.81,3.25-1.36,3.25-3.77-1.58-3.75-3.25-3.75Z"/>
    <path class="cls-9" d="M207.53,68.56h-2.22v-11.17h2.22v1.62c.62-1.11,1.69-1.8,3.21-1.8v2.39h-.56c-1.63,0-2.65.71-2.65,3.08v5.88Z"/>
    <path class="cls-9" d="M212.68,59.28h-1.26v-1.88h1.26v-2.78h2.24v2.78h2.61v1.88h-2.61v6.18c0,.83.31,1.18,1.25,1.18h1.36v1.92h-1.75c-1.91,0-3.09-.83-3.09-3.1v-6.18Z"/>
    <path class="cls-9" d="M167.67,76.29c2.82,0,5.25,1.48,6.28,4.24h-2.67c-.72-1.5-2-2.21-3.62-2.21-2.68,0-4.63,1.99-4.63,5.17s1.95,5.19,4.63,5.19c1.62,0,2.9-.71,3.62-2.21h2.67c-1.03,2.76-3.46,4.21-6.28,4.21-3.81,0-6.91-2.96-6.91-7.19s3.09-7.19,6.91-7.19Z"/>
    <path class="cls-9" d="M175.8,76.43c0-.83.62-1.48,1.42-1.48s1.4.65,1.4,1.48-.62,1.48-1.4,1.48-1.42-.65-1.42-1.48ZM176.09,79.39h2.22v11.17h-2.22v-11.17Z"/>
    <path class="cls-9" d="M181.13,81.28h-1.26v-1.88h1.26v-2.78h2.24v2.78h2.61v1.88h-2.61v6.18c0,.83.31,1.18,1.25,1.18h1.36v1.92h-1.75c-1.91,0-3.09-.83-3.09-3.1v-6.18Z"/>
    <path class="cls-9" d="M187.28,76.43c0-.83.62-1.48,1.42-1.48s1.4.65,1.4,1.48-.62,1.48-1.4,1.48-1.42-.65-1.42-1.48ZM187.57,79.39h2.22v11.17h-2.22v-11.17Z"/>
    <path class="cls-9" d="M196.87,90.74c-3.07,0-5.35-2.27-5.35-5.78s2.18-5.75,5.35-5.75,5.21,2.21,5.21,5.49c0,.39-.02.75-.08,1.13h-8.19c.16,1.84,1.42,2.96,3.05,2.96,1.36,0,2.12-.69,2.53-1.56h2.39c-.6,1.95-2.3,3.51-4.92,3.51ZM193.83,83.97h5.93c-.04-1.72-1.34-2.82-3-2.82-1.5,0-2.7,1.05-2.94,2.82Z"/>
    <path class="cls-9" d="M207.7,90.74c-2.57,0-4.38-1.58-4.48-3.61h2.3c.08.91.92,1.66,2.14,1.66s1.96-.57,1.96-1.34c0-2.19-6.23-.93-6.23-5.03,0-1.78,1.59-3.22,4.12-3.22s4.03,1.36,4.14,3.59h-2.22c-.08-.97-.8-1.64-2-1.64s-1.81.51-1.81,1.26c0,2.25,6.05.99,6.17,5.03,0,1.88-1.58,3.3-4.1,3.3Z"/>
  </g>
</svg>