<?xml version="1.0" encoding="UTF-8"?>
<svg id="Layer_1" data-name="Layer 1" xmlns="http://www.w3.org/2000/svg" viewBox="0 0 300 100">
  <defs>
    <style>
      .cls-1 {
        fill: #242422;
      }

      .cls-2 {
        fill: #f6a501;
      }

      .cls-3 {
        fill: #fdfdfd;
      }
    </style>
  </defs>
  <path class="cls-2" d="M87.2,13.88v72.24H14.8V13.88h72.4ZM50.02,37.89c-6.85-6.25-17.96-4.94-22.69,3.11-6.08,10.35,1.63,23.07,13.58,22.29,1.96-.13,3.56-1.07,5.13-1.29,1.92-.27,8.69,3.7,10.96,4.7,1.22.53,2.62,1.28,3.93,1.28l-14.49-12.27c-1.17-.55-2.66.81-3.85,1.2-7.93,2.6-14.47-6.04-10.1-13.1s15.96-3.93,16.33,4.51c.07,1.65-1.19,4.22-.99,4.97.15.55,3.71,3.52,4.34,3.13.41-.26,1.54-3.01,1.73-3.67,1.48-5.27.2-11.11-3.9-14.85ZM56.22,53.19c.55,1.41-2.19,4.72-1.99,5.48s3.9,2.61,4.79,2.98c6.02,2.48,16.38,2.23,17.36-5.98.54-4.53-1.38-7.24-5.46-8.93-2.15-.89-11.91-2.15-9.12-5.96,1.95-2.66,8.28-.13,10.42,1.59.78-.98,3.59-4.11,2.89-5.16-1.63-2.42-8.93-3.42-11.64-3.18-9.26.85-11.85,12.32-3.54,15.95,2.18.96,12.78,2.28,9.62,6.24-1.71,2.15-5.87,1.15-8.06.27s-3.2-2.48-5.26-3.31Z"/>
  <path class="cls-2" d="M285.2,13.88v19.66s-.47.5-.51.5h-99.84V13.88h100.34Z"/>
  <path class="cls-2" d="M285.2,86.12h-70.38v-20.16h69.87s.51.47.51.5v19.66Z"/>
  <rect class="cls-2" x="229.97" y="40.09" width="55.22" height="19.82"/>
  <path class="cls-1" d="M100.97,17.27c.36.31,2.12,7.92,2.73,9.04l3.06-9.04c.11-.09,2.53-.13,2.79-.06.46.13,2.42,8.03,3.07,9.1.88-1.03,2.51-8.77,2.91-9.03.44-.29,2.59.11,3.32-.04-.55,1.75-4.12,13.99-4.77,14.39-.23.14-2.83.12-2.94.02-.35-.3-2.13-7.68-2.9-8.71-.45,0-2.47,7.74-3.03,8.41-.41.49-2.38.51-2.88.18-.66-.44-4.12-12.09-4.71-13.79-.04-.7,0-.44.5-.51.41-.06,2.73-.06,2.84.04Z"/>
  <path class="cls-1" d="M123.23,50.84v-8.06h3.37v14.45l-3.03-.17-6.4-8.23v8.4h-3.37v-14.45c.8.08,1.74-.14,2.52,0,1.54.29,5.15,6.93,6.91,8.06Z"/>
  <path class="cls-1" d="M137.71,76.38v-7.56c0-.73,3.37-.73,3.37,0v13.94c-1.02-.1-2.38.3-3.22-.31l-6.21-8.09v8.4h-3.37v-13.94c0-.78,2.47-.57,3.16-.13,1.77,1.1,4.14,6.43,6.27,7.69Z"/>
  <path class="cls-1" d="M163.3,68.82c.23-.73,2.61-.7,3.22-.19l6.21,8.09v-7.9c0-.73,3.37-.73,3.37,0v13.94c-1.02-.1-2.38.3-3.22-.31l-6.21-8.09v8.4h-3.37v-13.94Z"/>
  <path class="cls-1" d="M124.83,17.32c12.04-2.03,12.35,14.74,1.6,14.63-9.25-.09-9.52-13.3-1.6-14.63ZM125.15,20.34c-3.96.9-3.44,9.05,1.87,8.59s5.16-10.18-1.87-8.59Z"/>
  <path class="cls-1" d="M143.27,17.24c3.55.47,5.34,3.24,4.39,6.73-.43,1.6-2.55,2.33-2.55,2.51.02.75,3.55,4.75,3.04,5.2-.99-.16-2.9.31-3.7-.17-1.48-.89-1.83-5.39-5.05-4.2-.01,3.41.9,4.93-3.37,4.37v-14.45c2.28.22,5.03-.29,7.24,0ZM144.35,21.03c-.86-1.06-4.01-.72-5.3-.76v4.37c.16.15,3.97-.33,4.38-.51.98-.43,1.66-2.19.92-3.1Z"/>
  <path class="cls-1" d="M191.25,81.08c-6.39,4.77-16.22,0-12.96-8.4,1.76-4.54,8.85-5.95,12.28-2.85.74.67-1.01,2.31-1.58,2.47-.91.25-2.05-.91-3.3-.98-5.92-.34-6.35,9.54,1,8.39,1.19-.19,2.23-1.62,1.54-2.33-.12-.13-2.5.09-3.03,0v-3.03h6.06v6.72Z"/>
  <path class="cls-1" d="M169.19,42.78c4.19.59,6.13,5.02,3.22,8.25-.34.38-1.38.9-1.39,1.01-.05.65,3.36,4.96,3.05,5.19-1.07-.14-2.76.3-3.71-.16s-2.28-4.12-3.18-4.23c-.68-.08-1.49.1-2.2.02v4.37s-3.03,0-3.03,0v-14.45c2.26.23,5.05-.31,7.24,0ZM164.98,49.83c7.41,1.21,7.33-5.19,0-4.04v4.04Z"/>
  <path class="cls-1" d="M159.43,42.78c.63.19.7,2.59.46,2.98-.42.68-6.05.43-7.16.06-.69.17-.53,2.67-.03,2.67h6.23v3.02h-6.23c-.71,0-.71,2.69,0,2.69h7.24v3.02h-10.61s-.51-.47-.51-.5v-13.44s.47-.5.51-.5c1.97,0,8.82-.39,10.1,0Z"/>
  <path class="cls-1" d="M161.62,31.69v-14.45h6.57c.2,0,2.39.77,2.75.95,4.74,2.28,5.08,9.49.68,12.22-.5.31-2.67,1.28-3.09,1.28h-6.9ZM164.65,28.66c8.91,1.44,8.94-9.73,0-8.4v8.4Z"/>
  <path class="cls-1" d="M107.91,68.65c2.77.56,3.92,4.4,2.79,6.81-.48,1.02-2.29,1.96-2.3,2.11-.05.83,3.47,4.83,3.05,5.19-1.07-.14-2.76.3-3.7-.16s-2.28-4.12-3.18-4.23c-.68-.08-1.49.1-2.2.02v4.37s-3.03,0-3.03,0v-14.11c2.51.35,6.25-.47,8.59,0ZM102.35,75.37c7.36,1.12,7.36-5.16,0-4.04v4.04Z"/>
  <path class="cls-1" d="M146.8,74.02c3.38-2.23,4.18-6.89,9.09-5.71.1.52-.05.78-.32,1.19-.61.93-4.95,4.49-4.99,5.02.34,1.07,6.19,7.74,5.64,8.23-.92-.18-3.32.3-3.97-.07-.5-.29-3.6-5.64-3.95-5.64-2.43.81-1.26,3.76-1.51,5.72h-3.37v-13.95c0-.73,3.37-.73,3.37,0v5.21Z"/>
  <path class="cls-1" d="M121.16,68.36l5.77,14.4c-.74-.15-2.87.25-3.32-.04-.22-.14-.75-2.86-1.28-2.99-.63-.15-5.67-.04-5.87.22-.35.46-.85,2.66-1.02,2.77-.45.29-2.58-.11-3.32.04l5.76-13.91c.68-.94,2.24-.5,3.29-.49ZM119.86,72.68c-.57-.6-.57.22-.7.48-.19.38-1.46,3.43-1.31,3.55h3.36c-.36-.58-1.2-3.88-1.35-4.03Z"/>
  <path class="cls-1" d="M102.35,42.78v8.57c0,3.78,6.06,3.62,6.06.67v-9.24c1.06.16,3.1-.59,3.37.84.37,1.98.1,8.57-.66,10.43-1.32,3.23-4.99,3.75-8.12,3.04-1.46-.34-3.68-2.65-3.68-4.06v-10.25h3.03Z"/>
  <path class="cls-1" d="M185.85,44.14c.18,1.22-1.19,1.84-1.34,3.01-1.03-.7-5.38-2.42-5.7-.46-.22,1.32,4.15,2.03,5.16,2.52,2.29,1.12,3.08,3.33,2.06,5.67-1.67,3.83-8.57,2.88-10.93.13,1.91-3.71,2.77-1.06,5.2-.8,1.07.12,2.29.15,2.85-.89-1.9-2.87-7.75-1.32-7.61-6.29.15-5.16,7-5.01,10.31-2.89Z"/>
  <path class="cls-1" d="M202.3,72.28c-.74.43-5.95-2.68-5.68.21.17,1.79,5.49,1.44,6.89,3.91,2.03,3.59-1.35,6.61-4.97,6.56-1.56-.02-6.26-1.07-5.36-3.14,1.26-2.88,3.04.15,5.34.22,1.49.04,3.21-1.13,1.62-2.29-2.61-1.89-7.84-.16-6.85-6.23.76-4.62,9.63-3.47,10.04-1.32.04.24-.93,2.02-1.03,2.08Z"/>
  <path class="cls-1" d="M140.41,52.18c.48-.04.53-.49.68-.83.68-1.47,2.45-7.6,3.18-8.25s2.22-.22,3.2-.33c.07.59-.02,1.11-.17,1.68-.96,3.83-3.85,8.28-4.91,12.23-.59.9-1.88.44-2.85.56l-5.88-14.47c.92.14,2.96-.36,3.54.33,1.12,1.35,2.33,7.16,3.2,9.07Z"/>
  <path class="cls-1" d="M210.78,51.68c-.36-1.65-4.77-6.31-5.38-8.41-.18-.63.1-.44.49-.49.65-.08,2.07-.1,2.71-.03.9.1,2.68,4.6,3.69,5.4,2.42-2.62,2.28-6.43,6.9-5.37.49.36-5.39,8.38-5.39,8.9v5.54h-3.03c-.24-1.61.32-4.06,0-5.54Z"/>
  <path class="cls-1" d="M204.72,43.11c.6,4.02-1.34,2.93-4.38,3.02v11.09c-.63-.02-3.37.23-3.37-.5v-10.58h-4.04s0-3.02,0-3.02h11.79Z"/>
  <path class="cls-1" d="M153.2,17.24v10.92s.47.5.51.5h6.57v3.02h-10.44v-13.94c0-.74,2.74-.48,3.37-.5Z"/>
  <rect class="cls-1" x="188.22" y="42.78" width="3.37" height="14.45"/>
  <rect class="cls-1" x="128.95" y="42.78" width="3.37" height="14.45"/>
  <rect class="cls-1" x="157.58" y="68.31" width="3.37" height="14.45"/>
  <path class="cls-3" d="M50.02,37.89c4.1,3.74,5.37,9.58,3.9,14.85-.19.66-1.32,3.41-1.73,3.67-.63.4-4.19-2.57-4.34-3.13-.2-.75,1.06-3.32.99-4.97-.37-8.44-11.87-11.71-16.33-4.51s2.17,15.7,10.1,13.1c1.18-.39,2.67-1.75,3.85-1.2l14.49,12.27c-1.31,0-2.71-.75-3.93-1.28-2.28-1-9.04-4.96-10.96-4.7-1.57.22-3.17,1.16-5.13,1.29-11.95.78-19.66-11.94-13.58-22.29,4.73-8.05,15.84-9.36,22.69-3.11Z"/>
  <path class="cls-3" d="M56.22,53.19c2.06.84,3.08,2.44,5.26,3.31s6.35,1.89,8.06-.27c3.16-3.97-7.44-5.29-9.62-6.24-8.31-3.64-5.71-15.11,3.54-15.95,2.71-.25,10.02.76,11.64,3.18.7,1.05-2.11,4.17-2.89,5.16-2.14-1.72-8.47-4.25-10.42-1.59-2.79,3.81,6.97,5.07,9.12,5.96,4.07,1.69,6,4.4,5.46,8.93-.98,8.2-11.34,8.46-17.36,5.98-.9-.37-4.59-2.19-4.79-2.98s2.55-4.07,1.99-5.48Z"/>
</svg>