<?xml version="1.0" encoding="UTF-8"?>
<svg id="Layer_1" data-name="Layer 1" xmlns="http://www.w3.org/2000/svg" xmlns:xlink="http://www.w3.org/1999/xlink" viewBox="0 0 300 100">
  <defs>
    <style>
      .cls-1 {
        fill: #be2e6e;
      }

      .cls-2 {
        fill: url(#linear-gradient);
      }

      .cls-3 {
        fill: #fdfdfd;
      }
    </style>
    <linearGradient id="linear-gradient" x1="34.6" y1="28.98" x2="96.74" y2="81.94" gradientUnits="userSpaceOnUse">
      <stop offset="0" stop-color="#e73835"/>
      <stop offset="1" stop-color="#5758a6"/>
    </linearGradient>
  </defs>
  <g>
    <path class="cls-1" d="M91.16,12.19c.96,1.6,3.61,1.44,5.18,2.32,2.36,1.31,5.48,6.39,5.99,9.04l.14,55.64c-1.4,6.91-6.8,12.34-13.84,13.33-17.03-1.16-36.14,1.56-52.91.03-3.66-.34-7.38-2.48-10.02-4.91-2.02-1.86-3.98-5.67-4.29-8.43-1.86-16.72,1.44-36.79-.01-53.87,1.04-7.82,7.09-13.06,14.84-13.79,17.13-1.6,37.63.66,54.92.64ZM50.06,27.54h-14.07c-.33,1.12-.76,7.01-.49,7.28.15.15,3.89-.4,3.89.72v40.98c1.48-.3,6.71.75,7.21-.8l.05-40.59c4.97-1.04,3.17-3.43,3.42-7.59ZM60.25,27.54h-6.79v48.98h6.79v-20.85h3.88v20.85h6.79V27.54h-6.79v20.85h-3.88v-20.85ZM88.4,27.54h-14.07v48.98h14.07v-6.79c-1.05-.14-6.79.49-6.79-.73v-13.34h5.34c-.17-5.46,1.73-8.23-5.34-7.27v-14.06h6.79v-6.79Z"/>
    <rect class="cls-2" x="20.83" y="11.21" width="81.65" height="81.65" rx="13.3" ry="13.3"/>
    <polygon class="cls-3" points="60.25 27.54 60.25 48.39 64.14 48.39 64.14 27.54 70.93 27.54 70.93 76.51 64.14 76.51 64.14 55.66 60.25 55.66 60.25 76.51 53.46 76.51 53.46 27.54 60.25 27.54"/>
    <path class="cls-3" d="M88.4,27.54v6.79h-6.79v14.06c1.76-.43,4.39-.35,4.79,1.35.45,1.91,1.7,3.97.55,5.93h-5.34s0,13.33,0,13.33c0,1.22,5.75.58,6.79.73v6.79h-14.07V27.54h14.07Z"/>
    <path class="cls-3" d="M50.06,27.54c-.25,4.16,1.55,6.55-3.42,7.59l-.05,40.59c-.51,1.54-5.73.5-7.21.8v-40.98c0-1.13-3.73-.58-3.89-.72-.27-.26.16-6.16.49-7.28h14.07Z"/>
  </g>
  <g>
    <g>
      <path d="M112.01,20.23h4.28l2.36,11.95,2.92-11.95h4.4l2.81,11.95,2.38-11.95h4.3l-4.28,16.42h-4.84l-2.62-10.8-2.71,10.8h-4.84l-4.16-16.42Z"/>
      <path d="M143.42,36.84c-3.83,0-6.73-2.57-6.73-6.71s2.97-6.71,6.78-6.71,6.78,2.57,6.78,6.71-2.99,6.71-6.83,6.71ZM143.42,33.38c1.43,0,2.76-1.05,2.76-3.25s-1.31-3.25-2.71-3.25-2.71,1.03-2.71,3.25,1.22,3.25,2.67,3.25Z"/>
      <path d="M156.37,36.65h-4v-13.05h4v2.17c.91-1.38,2.34-2.31,4.09-2.31v4.23h-1.1c-1.89,0-2.99.65-2.99,2.9v6.06Z"/>
      <path d="M162.38,19.35h4v17.3h-4v-17.3Z"/>
      <path d="M174.24,23.41c1.73,0,3.23.8,4.02,1.99v-6.06h4v17.3h-4v-1.87c-.72,1.19-2.1,2.06-4.02,2.06-3.2,0-5.75-2.62-5.75-6.73s2.55-6.69,5.75-6.69ZM175.41,26.9c-1.5,0-2.85,1.12-2.85,3.2s1.36,3.25,2.85,3.25,2.85-1.15,2.85-3.23-1.33-3.23-2.85-3.23Z"/>
    </g>
    <g>
      <path d="M112.01,41.62h4v9.82c0,1.94.96,3.06,2.85,3.06s2.9-1.12,2.9-3.06v-9.82h4v9.8c0,4.54-3.18,6.78-6.97,6.78s-6.78-2.24-6.78-6.78v-9.8Z"/>
      <path d="M137.57,50.95c0-1.78-.98-2.76-2.5-2.76s-2.5.98-2.5,2.76v7.09h-4v-13.05h4v1.73c.79-1.1,2.2-1.87,3.95-1.87,3.02,0,5.03,2.06,5.03,5.57v7.62h-3.98v-7.09Z"/>
      <path d="M143.96,41.48c0-1.22.96-2.17,2.38-2.17s2.36.96,2.36,2.17-.96,2.15-2.36,2.15-2.38-.96-2.38-2.15ZM144.33,44.99h4v13.05h-4v-13.05Z"/>
      <path d="M154.27,44.99l2.83,9.31,2.83-9.31h4.26l-4.63,13.05h-4.93l-4.63-13.05h4.28Z"/>
      <path d="M171.67,58.22c-3.83,0-6.59-2.57-6.59-6.71s2.71-6.71,6.59-6.71,6.5,2.53,6.5,6.5c0,.37-.02.77-.07,1.17h-9.05c.14,1.71,1.19,2.5,2.48,2.5,1.12,0,1.75-.56,2.08-1.26h4.26c-.63,2.55-2.95,4.51-6.2,4.51ZM169.07,50.25h5c0-1.43-1.12-2.24-2.46-2.24s-2.31.8-2.55,2.24Z"/>
      <path d="M184.27,58.04h-4v-13.05h4v2.17c.91-1.38,2.34-2.31,4.09-2.31v4.23h-1.1c-1.89,0-2.99.65-2.99,2.9v6.06Z"/>
      <path d="M195.59,58.22c-3.48,0-5.82-1.94-6.01-4.47h3.95c.09.91.91,1.52,2.01,1.52,1.03,0,1.57-.47,1.57-1.05,0-2.1-7.11-.58-7.11-5.38,0-2.22,1.89-4.05,5.31-4.05s5.24,1.87,5.49,4.44h-3.7c-.12-.89-.79-1.47-1.92-1.47-.94,0-1.45.37-1.45,1.01,0,2.08,7.06.61,7.13,5.47,0,2.27-2.01,3.98-5.28,3.98Z"/>
      <path d="M202.96,41.48c0-1.22.96-2.17,2.38-2.17s2.36.96,2.36,2.17-.96,2.15-2.36,2.15-2.38-.96-2.38-2.15ZM203.34,44.99h4v13.05h-4v-13.05Z"/>
      <path d="M210.87,48.31h-1.59v-3.32h1.59v-3.18h4v3.18h2.62v3.32h-2.62v5.24c0,.77.33,1.1,1.22,1.1h1.43v3.39h-2.04c-2.71,0-4.61-1.15-4.61-4.54v-5.19Z"/>
      <path d="M228.73,44.99h4.33l-8.18,19.24h-4.3l2.99-6.64-5.31-12.6h4.47l3.02,8.16,2.99-8.16Z"/>
    </g>
    <g>
      <path d="M118.72,62.34c4.02,0,6.03,2.32,6.03,5.17,0,2.06-1.12,4-3.65,4.75l3.79,6.5h-4.51l-3.41-6.2h-.96v6.2h-4v-16.42h6.71ZM118.49,65.66h-2.48v4.07h2.48c1.5,0,2.2-.77,2.2-2.06,0-1.22-.7-2.01-2.2-2.01Z"/>
      <path d="M132.21,65.52c1.94,0,3.32.89,4.02,2.03v-1.85h4v13.05h-4v-1.85c-.72,1.15-2.1,2.03-4.04,2.03-3.18,0-5.73-2.62-5.73-6.73s2.55-6.69,5.75-6.69ZM133.38,69.01c-1.5,0-2.85,1.12-2.85,3.2s1.36,3.25,2.85,3.25,2.85-1.15,2.85-3.23-1.33-3.23-2.85-3.23Z"/>
      <path d="M152.14,71.67c0-1.78-.98-2.76-2.5-2.76s-2.5.98-2.5,2.76v7.09h-4v-13.05h4v1.73c.79-1.1,2.2-1.87,3.95-1.87,3.02,0,5.03,2.06,5.03,5.57v7.62h-3.98v-7.09Z"/>
      <path d="M158.9,61.46h4v9.56l3.95-5.31h4.93l-5.42,6.55,5.47,6.5h-4.96l-3.97-5.47v5.47h-4v-17.3Z"/>
      <path d="M172.98,62.2c0-1.22.96-2.17,2.39-2.17s2.36.96,2.36,2.17-.96,2.15-2.36,2.15-2.39-.96-2.39-2.15ZM173.35,65.71h4v13.05h-4v-13.05Z"/>
      <path d="M189.25,71.67c0-1.78-.98-2.76-2.5-2.76s-2.5.98-2.5,2.76v7.09h-4v-13.05h4v1.73c.79-1.1,2.2-1.87,3.95-1.87,3.02,0,5.03,2.06,5.03,5.57v7.62h-3.98v-7.09Z"/>
      <path d="M200.97,65.52c1.92,0,3.32.86,4.02,2.03v-1.85h4v13.02c0,3.48-2.01,6.45-6.52,6.45-3.88,0-6.41-1.96-6.76-5.07h3.95c.26.98,1.24,1.61,2.62,1.61,1.52,0,2.71-.79,2.71-2.99v-1.85c-.72,1.15-2.1,2.06-4.02,2.06-3.2,0-5.75-2.62-5.75-6.73s2.55-6.69,5.75-6.69ZM202.14,69.01c-1.5,0-2.85,1.12-2.85,3.2s1.36,3.25,2.85,3.25,2.85-1.15,2.85-3.23-1.33-3.23-2.85-3.23Z"/>
      <path d="M217.2,78.95c-3.48,0-5.82-1.94-6.01-4.47h3.95c.09.91.91,1.52,2.01,1.52,1.03,0,1.57-.47,1.57-1.05,0-2.1-7.11-.58-7.11-5.38,0-2.22,1.89-4.05,5.31-4.05s5.24,1.87,5.49,4.44h-3.69c-.12-.89-.8-1.47-1.92-1.47-.94,0-1.45.37-1.45,1.01,0,2.08,7.06.61,7.13,5.47,0,2.27-2.01,3.98-5.28,3.98Z"/>
      <path d="M229.36,75.56c3.63-2.99,7.48-5.96,7.48-8.84,0-1.24-.56-2.03-1.78-2.03s-1.89.94-1.89,2.55h-3.86c.12-4.14,2.81-5.92,5.92-5.92,3.88,0,5.61,2.27,5.61,5.14,0,3.74-3.34,6.73-6.06,8.82h6.31v3.25h-11.74v-2.97Z"/>
      <path d="M249.43,61.34c4.86,0,6.57,3.65,6.57,8.65s-1.71,8.7-6.57,8.7-6.57-3.65-6.57-8.7,1.71-8.65,6.57-8.65ZM249.43,65.08c-2.36,0-2.64,2.29-2.64,4.91s.28,4.96,2.64,4.96,2.64-2.24,2.64-4.96-.28-4.91-2.64-4.91Z"/>
      <path d="M257.97,75.56c3.62-2.99,7.48-5.96,7.48-8.84,0-1.24-.56-2.03-1.78-2.03s-1.89.94-1.89,2.55h-3.86c.12-4.14,2.81-5.92,5.92-5.92,3.88,0,5.61,2.27,5.61,5.14,0,3.74-3.34,6.73-6.06,8.82h6.31v3.25h-11.74v-2.97Z"/>
    </g>
  </g>
  <rect class="cls-3" x="35.07" y="27.54" width="15.11" height="7.43"/>
  <rect class="cls-3" x="74.33" y="48.28" width="13.21" height="7.43" rx=".77" ry=".77"/>
  <path d="M278.69,75.48h-7.87v-3.23l7.4-10.59h4.47v10.35h1.92v3.47h-1.92v3.04h-4.01v-3.04ZM278.97,72.01v-5.95l-3.94,5.95h3.94Z"/>
</svg>